<svg width="1363" height="167" viewBox="0 0 1363 167" fill="none" xmlns="http://www.w3.org/2000/svg">
<rect width="1363" height="167" rx="15" fill="#F0F0F0"/>
<path d="M0 15C0 6.71573 6.71573 0 15 0H37V167H15C6.71573 167 0 160.284 0 152V15Z" fill="#424241"/>
<path d="M100.906 54.9219L93.3945 52.2383V49.0859L103.602 53.375V55.6367L100.906 54.9219ZM93.3945 57.1719L100.918 54.4297L103.602 53.7852V56.0352L93.3945 60.3242V57.1719ZM118.836 47.8555L114.195 62H110.457L116.797 44.9375H119.176L118.836 47.8555ZM122.691 62L118.039 47.8555L117.664 44.9375H120.066L126.441 62H122.691ZM122.48 55.6484V58.4023H113.469V55.6484H122.48ZM135.172 58.9648V49.3203H138.547V62H135.371L135.172 58.9648ZM135.547 56.3633L136.543 56.3398C136.543 57.1836 136.445 57.9688 136.25 58.6953C136.055 59.4141 135.762 60.0391 135.371 60.5703C134.98 61.0938 134.488 61.5039 133.895 61.8008C133.301 62.0898 132.602 62.2344 131.797 62.2344C131.18 62.2344 130.609 62.1484 130.086 61.9766C129.57 61.7969 129.125 61.5195 128.75 61.1445C128.383 60.7617 128.094 60.2734 127.883 59.6797C127.68 59.0781 127.578 58.3555 127.578 57.5117V49.3203H130.953V57.5352C130.953 57.9102 130.996 58.2266 131.082 58.4844C131.176 58.7422 131.305 58.9531 131.469 59.1172C131.633 59.2812 131.824 59.3984 132.043 59.4688C132.27 59.5391 132.52 59.5742 132.793 59.5742C133.488 59.5742 134.035 59.4336 134.434 59.1523C134.84 58.8711 135.125 58.4883 135.289 58.0039C135.461 57.5117 135.547 56.9648 135.547 56.3633ZM147.336 49.3203V51.7109H139.953V49.3203H147.336ZM141.781 46.1914H145.156V58.1797C145.156 58.5469 145.203 58.8281 145.297 59.0234C145.398 59.2188 145.547 59.3555 145.742 59.4336C145.938 59.5039 146.184 59.5391 146.48 59.5391C146.691 59.5391 146.879 59.5312 147.043 59.5156C147.215 59.4922 147.359 59.4688 147.477 59.4453L147.488 61.9297C147.199 62.0234 146.887 62.0977 146.551 62.1523C146.215 62.207 145.844 62.2344 145.438 62.2344C144.695 62.2344 144.047 62.1133 143.492 61.8711C142.945 61.6211 142.523 61.2227 142.227 60.6758C141.93 60.1289 141.781 59.4102 141.781 58.5195V46.1914ZM148.414 55.7891V55.543C148.414 54.6133 148.547 53.7578 148.812 52.9766C149.078 52.1875 149.465 51.5039 149.973 50.9258C150.48 50.3477 151.105 49.8984 151.848 49.5781C152.59 49.25 153.441 49.0859 154.402 49.0859C155.363 49.0859 156.219 49.25 156.969 49.5781C157.719 49.8984 158.348 50.3477 158.855 50.9258C159.371 51.5039 159.762 52.1875 160.027 52.9766C160.293 53.7578 160.426 54.6133 160.426 55.543V55.7891C160.426 56.7109 160.293 57.5664 160.027 58.3555C159.762 59.1367 159.371 59.8203 158.855 60.4062C158.348 60.9844 157.723 61.4336 156.98 61.7539C156.238 62.0742 155.387 62.2344 154.426 62.2344C153.465 62.2344 152.609 62.0742 151.859 61.7539C151.117 61.4336 150.488 60.9844 149.973 60.4062C149.465 59.8203 149.078 59.1367 148.812 58.3555C148.547 57.5664 148.414 56.7109 148.414 55.7891ZM151.789 55.543V55.7891C151.789 56.3203 151.836 56.8164 151.93 57.2773C152.023 57.7383 152.172 58.1445 152.375 58.4961C152.586 58.8398 152.859 59.1094 153.195 59.3047C153.531 59.5 153.941 59.5977 154.426 59.5977C154.895 59.5977 155.297 59.5 155.633 59.3047C155.969 59.1094 156.238 58.8398 156.441 58.4961C156.645 58.1445 156.793 57.7383 156.887 57.2773C156.988 56.8164 157.039 56.3203 157.039 55.7891V55.543C157.039 55.0273 156.988 54.543 156.887 54.0898C156.793 53.6289 156.641 53.2227 156.43 52.8711C156.227 52.5117 155.957 52.2305 155.621 52.0273C155.285 51.8242 154.879 51.7227 154.402 51.7227C153.926 51.7227 153.52 51.8242 153.184 52.0273C152.855 52.2305 152.586 52.5117 152.375 52.8711C152.172 53.2227 152.023 53.6289 151.93 54.0898C151.836 54.543 151.789 55.0273 151.789 55.543ZM167.949 62H164.234L164.258 59.2578H167.949C168.871 59.2578 169.648 59.0508 170.281 58.6367C170.914 58.2148 171.391 57.6016 171.711 56.7969C172.039 55.9922 172.203 55.0195 172.203 53.8789V53.0469C172.203 52.1719 172.109 51.4023 171.922 50.7383C171.742 50.0742 171.473 49.5156 171.113 49.0625C170.754 48.6094 170.312 48.2695 169.789 48.043C169.266 47.8086 168.664 47.6914 167.984 47.6914H164.164V44.9375H167.984C169.125 44.9375 170.168 45.1328 171.113 45.5234C172.066 45.9062 172.891 46.457 173.586 47.1758C174.281 47.8945 174.816 48.7539 175.191 49.7539C175.574 50.7461 175.766 51.8516 175.766 53.0703V53.8789C175.766 55.0898 175.574 56.1953 175.191 57.1953C174.816 58.1953 174.281 59.0547 173.586 59.7734C172.898 60.4844 172.074 61.0352 171.113 61.4258C170.16 61.8086 169.105 62 167.949 62ZM166.227 44.9375V62H162.711V44.9375H166.227ZM181.672 49.3203V62H178.285V49.3203H181.672ZM178.074 46.0156C178.074 45.5234 178.246 45.1172 178.59 44.7969C178.934 44.4766 179.395 44.3164 179.973 44.3164C180.543 44.3164 181 44.4766 181.344 44.7969C181.695 45.1172 181.871 45.5234 181.871 46.0156C181.871 46.5078 181.695 46.9141 181.344 47.2344C181 47.5547 180.543 47.7148 179.973 47.7148C179.395 47.7148 178.934 47.5547 178.59 47.2344C178.246 46.9141 178.074 46.5078 178.074 46.0156ZM190.297 62.2344C189.312 62.2344 188.43 62.0781 187.648 61.7656C186.867 61.4453 186.203 61.0039 185.656 60.4414C185.117 59.8789 184.703 59.2266 184.414 58.4844C184.125 57.7344 183.98 56.9375 183.98 56.0938V55.625C183.98 54.6641 184.117 53.7852 184.391 52.9883C184.664 52.1914 185.055 51.5 185.562 50.9141C186.078 50.3281 186.703 49.8789 187.438 49.5664C188.172 49.2461 189 49.0859 189.922 49.0859C190.82 49.0859 191.617 49.2344 192.312 49.5312C193.008 49.8281 193.59 50.25 194.059 50.7969C194.535 51.3438 194.895 52 195.137 52.7656C195.379 53.5234 195.5 54.3672 195.5 55.2969V56.7031H185.422V54.4531H192.184V54.1953C192.184 53.7266 192.098 53.3086 191.926 52.9414C191.762 52.5664 191.512 52.2695 191.176 52.0508C190.84 51.832 190.41 51.7227 189.887 51.7227C189.441 51.7227 189.059 51.8203 188.738 52.0156C188.418 52.2109 188.156 52.4844 187.953 52.8359C187.758 53.1875 187.609 53.6016 187.508 54.0781C187.414 54.5469 187.367 55.0625 187.367 55.625V56.0938C187.367 56.6016 187.438 57.0703 187.578 57.5C187.727 57.9297 187.934 58.3008 188.199 58.6133C188.473 58.9258 188.801 59.168 189.184 59.3398C189.574 59.5117 190.016 59.5977 190.508 59.5977C191.117 59.5977 191.684 59.4805 192.207 59.2461C192.738 59.0039 193.195 58.6406 193.578 58.1562L195.219 59.9375C194.953 60.3203 194.59 60.6875 194.129 61.0391C193.676 61.3906 193.129 61.6797 192.488 61.9062C191.848 62.125 191.117 62.2344 190.297 62.2344ZM203.633 49.3203V51.7109H196.25V49.3203H203.633ZM198.078 46.1914H201.453V58.1797C201.453 58.5469 201.5 58.8281 201.594 59.0234C201.695 59.2188 201.844 59.3555 202.039 59.4336C202.234 59.5039 202.48 59.5391 202.777 59.5391C202.988 59.5391 203.176 59.5312 203.34 59.5156C203.512 59.4922 203.656 59.4688 203.773 59.4453L203.785 61.9297C203.496 62.0234 203.184 62.0977 202.848 62.1523C202.512 62.207 202.141 62.2344 201.734 62.2344C200.992 62.2344 200.344 62.1133 199.789 61.8711C199.242 61.6211 198.82 61.2227 198.523 60.6758C198.227 60.1289 198.078 59.4102 198.078 58.5195V46.1914Z" fill="#888888"/>
<path d="M115.994 98.708V104.641H99.5806V98.708H115.994ZM102.151 86.0078V118H94.439V86.0078H102.151ZM121.18 86.0078V118H113.489V86.0078H121.18ZM124.805 106.354V105.893C124.805 104.15 125.054 102.546 125.552 101.081C126.05 99.6016 126.783 98.3198 127.75 97.2358C128.716 96.1519 129.91 95.3096 131.331 94.709C132.752 94.0938 134.393 93.7861 136.253 93.7861C138.128 93.7861 139.776 94.0938 141.197 94.709C142.632 95.3096 143.833 96.1519 144.8 97.2358C145.767 98.3198 146.5 99.6016 146.998 101.081C147.496 102.546 147.745 104.15 147.745 105.893V106.354C147.745 108.083 147.496 109.687 146.998 111.167C146.5 112.631 145.767 113.913 144.8 115.012C143.833 116.096 142.64 116.938 141.219 117.539C139.798 118.139 138.157 118.439 136.297 118.439C134.437 118.439 132.789 118.139 131.353 117.539C129.917 116.938 128.716 116.096 127.75 115.012C126.783 113.913 126.05 112.631 125.552 111.167C125.054 109.687 124.805 108.083 124.805 106.354ZM132.21 105.893V106.354C132.21 107.248 132.276 108.083 132.408 108.859C132.54 109.636 132.759 110.317 133.067 110.903C133.375 111.474 133.792 111.921 134.319 112.243C134.847 112.565 135.506 112.727 136.297 112.727C137.073 112.727 137.718 112.565 138.23 112.243C138.758 111.921 139.175 111.474 139.483 110.903C139.791 110.317 140.01 109.636 140.142 108.859C140.274 108.083 140.34 107.248 140.34 106.354V105.893C140.34 105.029 140.274 104.216 140.142 103.454C140.01 102.678 139.791 101.997 139.483 101.411C139.175 100.81 138.758 100.341 138.23 100.004C137.703 99.6675 137.044 99.499 136.253 99.499C135.477 99.499 134.825 99.6675 134.297 100.004C133.785 100.341 133.375 100.81 133.067 101.411C132.759 101.997 132.54 102.678 132.408 103.454C132.276 104.216 132.21 105.029 132.21 105.893ZM158.27 110.925L162.664 94.2256H167.3L165.652 102.597L161.302 118H157.588L158.27 110.925ZM156.534 94.2256L159.258 110.793L159.566 118H155.062L149.437 94.2256H156.534ZM171.211 110.441L173.958 94.2256H181.055L175.474 118H170.97L171.211 110.441ZM167.828 94.2256L172.266 110.881L172.947 118H169.19L164.927 102.641L163.345 94.2256H167.828ZM209.466 86.0078V118H201.753V86.0078H209.466ZM219.09 86.0078V91.9624H192.349V86.0078H219.09ZM216.475 106.354V105.893C216.475 104.15 216.724 102.546 217.222 101.081C217.72 99.6016 218.453 98.3198 219.419 97.2358C220.386 96.1519 221.58 95.3096 223.001 94.709C224.422 94.0938 226.062 93.7861 227.923 93.7861C229.798 93.7861 231.446 94.0938 232.867 94.709C234.302 95.3096 235.503 96.1519 236.47 97.2358C237.437 98.3198 238.169 99.6016 238.667 101.081C239.166 102.546 239.415 104.15 239.415 105.893V106.354C239.415 108.083 239.166 109.687 238.667 111.167C238.169 112.631 237.437 113.913 236.47 115.012C235.503 116.096 234.31 116.938 232.889 117.539C231.468 118.139 229.827 118.439 227.967 118.439C226.106 118.439 224.458 118.139 223.023 117.539C221.587 116.938 220.386 116.096 219.419 115.012C218.453 113.913 217.72 112.631 217.222 111.167C216.724 109.687 216.475 108.083 216.475 106.354ZM223.88 105.893V106.354C223.88 107.248 223.946 108.083 224.078 108.859C224.209 109.636 224.429 110.317 224.737 110.903C225.044 111.474 225.462 111.921 225.989 112.243C226.517 112.565 227.176 112.727 227.967 112.727C228.743 112.727 229.388 112.565 229.9 112.243C230.428 111.921 230.845 111.474 231.153 110.903C231.46 110.317 231.68 109.636 231.812 108.859C231.944 108.083 232.01 107.248 232.01 106.354V105.893C232.01 105.029 231.944 104.216 231.812 103.454C231.68 102.678 231.46 101.997 231.153 101.411C230.845 100.81 230.428 100.341 229.9 100.004C229.373 99.6675 228.714 99.499 227.923 99.499C227.146 99.499 226.495 99.6675 225.967 100.004C225.455 100.341 225.044 100.81 224.737 101.411C224.429 101.997 224.209 102.678 224.078 103.454C223.946 104.216 223.88 105.029 223.88 105.893ZM254.268 86.0078H266.858C269.319 86.0078 271.458 86.374 273.274 87.1064C275.091 87.8389 276.49 88.9229 277.471 90.3584C278.467 91.7939 278.965 93.5664 278.965 95.6758C278.965 97.5068 278.68 99.0376 278.108 100.268C277.537 101.499 276.739 102.517 275.713 103.322C274.703 104.113 273.523 104.765 272.176 105.278L269.649 106.706H259.08L259.036 100.751H266.858C267.84 100.751 268.653 100.576 269.297 100.224C269.942 99.8726 270.425 99.3745 270.748 98.73C271.084 98.0708 271.253 97.2871 271.253 96.3789C271.253 95.4561 271.084 94.665 270.748 94.0059C270.411 93.3467 269.913 92.8413 269.253 92.4897C268.609 92.1382 267.811 91.9624 266.858 91.9624H261.98V118H254.268V86.0078ZM271.78 118L264.705 103.85L272.879 103.806L280.042 117.67V118H271.78ZM297.159 112.221V94.2256H304.585V118H297.642L297.159 112.221ZM297.862 107.387L299.795 107.343C299.795 108.94 299.605 110.419 299.224 111.782C298.843 113.129 298.279 114.301 297.532 115.297C296.8 116.293 295.892 117.07 294.808 117.626C293.738 118.168 292.5 118.439 291.094 118.439C289.922 118.439 288.846 118.278 287.864 117.956C286.897 117.619 286.062 117.099 285.359 116.396C284.656 115.678 284.107 114.763 283.711 113.649C283.331 112.521 283.14 111.174 283.14 109.606V94.2256H290.545V109.65C290.545 110.178 290.611 110.632 290.743 111.013C290.875 111.394 291.065 111.716 291.314 111.979C291.563 112.229 291.871 112.419 292.237 112.551C292.618 112.668 293.05 112.727 293.533 112.727C294.646 112.727 295.518 112.492 296.148 112.023C296.778 111.555 297.217 110.917 297.466 110.112C297.73 109.306 297.862 108.398 297.862 107.387ZM315.945 99.3013V118H308.541V94.2256H315.484L315.945 99.3013ZM315.066 105.3L313.331 105.344C313.331 103.527 313.55 101.909 313.99 100.488C314.429 99.0522 315.052 97.8364 315.857 96.8403C316.663 95.8442 317.623 95.0898 318.736 94.5771C319.864 94.0498 321.116 93.7861 322.493 93.7861C323.592 93.7861 324.595 93.9473 325.503 94.2695C326.426 94.5918 327.217 95.1118 327.876 95.8296C328.55 96.5474 329.063 97.4995 329.415 98.686C329.781 99.8579 329.964 101.308 329.964 103.037V118H322.515V103.015C322.515 102.062 322.383 101.337 322.12 100.839C321.856 100.327 321.475 99.9751 320.977 99.7847C320.479 99.5942 319.871 99.499 319.153 99.499C318.392 99.499 317.747 99.6455 317.22 99.9385C316.692 100.231 316.268 100.642 315.945 101.169C315.638 101.682 315.411 102.29 315.264 102.993C315.132 103.696 315.066 104.465 315.066 105.3ZM345.85 107.871H339.544C339.544 106.582 339.632 105.446 339.808 104.465C339.998 103.469 340.32 102.575 340.774 101.784C341.229 100.993 341.844 100.261 342.62 99.5869C343.309 99.0156 343.902 98.4663 344.4 97.939C344.898 97.4116 345.279 96.877 345.542 96.335C345.806 95.793 345.938 95.2144 345.938 94.5991C345.938 93.8374 345.828 93.2148 345.608 92.7314C345.403 92.248 345.088 91.8892 344.664 91.6548C344.253 91.4058 343.733 91.2812 343.104 91.2812C342.591 91.2812 342.107 91.4058 341.653 91.6548C341.214 91.9038 340.855 92.292 340.577 92.8193C340.298 93.332 340.145 94.0132 340.115 94.8628H332.667C332.71 92.6802 333.194 90.9077 334.117 89.5454C335.054 88.1685 336.299 87.165 337.852 86.5352C339.419 85.8906 341.17 85.5684 343.104 85.5684C345.242 85.5684 347.081 85.8979 348.619 86.5571C350.157 87.2163 351.336 88.1978 352.156 89.5015C352.977 90.7905 353.387 92.3799 353.387 94.2695C353.387 95.5293 353.145 96.6279 352.662 97.5654C352.193 98.4883 351.556 99.3525 350.75 100.158C349.959 100.949 349.073 101.799 348.091 102.707C347.242 103.454 346.663 104.216 346.355 104.992C346.048 105.754 345.879 106.713 345.85 107.871ZM338.643 114.55C338.643 113.496 339.024 112.617 339.786 111.914C340.547 111.196 341.536 110.837 342.752 110.837C343.968 110.837 344.957 111.196 345.718 111.914C346.48 112.617 346.861 113.496 346.861 114.55C346.861 115.605 346.48 116.491 345.718 117.209C344.957 117.912 343.968 118.264 342.752 118.264C341.536 118.264 340.547 117.912 339.786 117.209C339.024 116.491 338.643 115.605 338.643 114.55Z" fill="#424241"/>
<path d="M1363 15C1363 6.71573 1356.28 0 1348 0H1134V167H1348C1356.28 167 1363 160.284 1363 152V15Z" fill="#FDAD00"/>
<path d="M1260.77 81.3079C1263.96 81.3079 1267.09 82.2553 1269.74 84.0303C1272.4 85.8053 1274.47 88.3282 1275.69 91.2799C1276.92 94.2316 1277.24 97.4796 1276.61 100.613C1275.99 103.747 1274.45 106.625 1272.19 108.884C1269.93 111.143 1267.05 112.682 1263.92 113.305C1260.79 113.928 1257.54 113.608 1254.59 112.386C1251.64 111.163 1249.11 109.093 1247.34 106.436C1245.56 103.78 1244.62 100.657 1244.62 97.4617C1244.62 93.1774 1246.32 89.0686 1249.35 86.0392C1252.38 83.0098 1256.48 81.3079 1260.77 81.3079ZM1260.77 75.9233C1256.51 75.9233 1252.35 77.1865 1248.8 79.5532C1245.26 81.9198 1242.5 85.2837 1240.87 89.2193C1239.24 93.1549 1238.81 97.4856 1239.64 101.664C1240.48 105.842 1242.53 109.679 1245.54 112.692C1248.55 115.704 1252.39 117.755 1256.57 118.586C1260.75 119.417 1265.08 118.991 1269.01 117.361C1272.95 115.73 1276.31 112.97 1278.68 109.428C1281.04 105.886 1282.31 101.722 1282.31 97.4617C1282.31 91.7493 1280.04 86.271 1276 82.2317C1271.96 78.1925 1266.48 75.9233 1260.77 75.9233Z" fill="white"/>
<path d="M1274.23 49H1220.38C1218.96 49 1217.59 49.5673 1216.58 50.5771C1215.57 51.5869 1215 52.9565 1215 54.3846V108.231C1215 109.659 1215.57 111.028 1216.58 112.038C1217.59 113.048 1218.96 113.615 1220.38 113.615H1231.15V108.231H1220.38V70.5384H1279.62V54.3846C1279.62 52.9565 1279.05 51.5869 1278.04 50.5771C1277.03 49.5673 1275.66 49 1274.23 49ZM1220.38 65.1538V54.3846H1274.23V65.1538H1220.38Z" fill="white"/>
<path d="M1255.38 89.3849V105.539L1268.85 97.4618L1255.38 89.3849Z" fill="white"/>
</svg>
