<svg width="1363" height="301" viewBox="0 0 1363 301" fill="none" xmlns="http://www.w3.org/2000/svg">
<rect width="1363" height="301" rx="15" fill="#F0F0F0"/>
<path d="M0 15C0 6.71573 6.71573 0 15 0H37V301H15C6.71573 301 0 294.284 0 286V15Z" fill="#FDAD00"/>
<path d="M111.551 113.116L102.017 144H91.8926L106.26 104.898H112.679L111.551 113.116ZM119.446 144L109.886 113.116L108.65 104.898H115.149L129.598 144H119.446ZM119.07 129.417V136.695H99.0093V129.417H119.07ZM148.692 136.937V114.942H157.769V144H149.283L148.692 136.937ZM149.551 131.029L151.915 130.975C151.915 132.927 151.682 134.735 151.216 136.4C150.751 138.047 150.062 139.479 149.148 140.697C148.253 141.914 147.143 142.863 145.818 143.543C144.511 144.206 142.999 144.537 141.28 144.537C139.847 144.537 138.532 144.34 137.332 143.946C136.15 143.535 135.13 142.899 134.271 142.04C133.411 141.162 132.74 140.043 132.256 138.683C131.791 137.304 131.558 135.657 131.558 133.741V114.942H140.608V133.795C140.608 134.439 140.689 134.994 140.85 135.46C141.011 135.925 141.244 136.319 141.548 136.642C141.853 136.946 142.229 137.179 142.676 137.34C143.142 137.483 143.67 137.555 144.261 137.555C145.621 137.555 146.687 137.268 147.457 136.695C148.226 136.122 148.764 135.344 149.068 134.359C149.39 133.374 149.551 132.264 149.551 131.029ZM178.072 114.942V121.227H160.562V114.942H178.072ZM164.241 107.718H173.292V134.52C173.292 135.29 173.381 135.89 173.56 136.319C173.739 136.731 174.043 137.027 174.473 137.206C174.921 137.367 175.512 137.447 176.246 137.447C176.765 137.447 177.194 137.438 177.535 137.42C177.875 137.385 178.197 137.34 178.501 137.286V143.758C177.732 144.009 176.926 144.197 176.084 144.322C175.243 144.465 174.348 144.537 173.399 144.537C171.465 144.537 169.809 144.233 168.431 143.624C167.07 143.015 166.032 142.057 165.315 140.75C164.599 139.444 164.241 137.743 164.241 135.648V107.718ZM179.737 129.767V129.203C179.737 127.072 180.041 125.112 180.65 123.321C181.259 121.513 182.154 119.946 183.335 118.622C184.517 117.297 185.976 116.267 187.713 115.533C189.45 114.781 191.455 114.405 193.729 114.405C196.02 114.405 198.034 114.781 199.771 115.533C201.526 116.267 202.994 117.297 204.175 118.622C205.357 119.946 206.252 121.513 206.861 123.321C207.47 125.112 207.774 127.072 207.774 129.203V129.767C207.774 131.879 207.47 133.84 206.861 135.648C206.252 137.438 205.357 139.005 204.175 140.348C202.994 141.673 201.535 142.702 199.798 143.436C198.061 144.17 196.056 144.537 193.782 144.537C191.508 144.537 189.494 144.17 187.74 143.436C185.985 142.702 184.517 141.673 183.335 140.348C182.154 139.005 181.259 137.438 180.65 135.648C180.041 133.84 179.737 131.879 179.737 129.767ZM188.787 129.203V129.767C188.787 130.859 188.868 131.879 189.029 132.828C189.19 133.777 189.458 134.61 189.834 135.326C190.21 136.024 190.721 136.57 191.365 136.964C192.01 137.358 192.815 137.555 193.782 137.555C194.731 137.555 195.519 137.358 196.146 136.964C196.79 136.57 197.3 136.024 197.676 135.326C198.052 134.61 198.321 133.777 198.482 132.828C198.643 131.879 198.724 130.859 198.724 129.767V129.203C198.724 128.146 198.643 127.153 198.482 126.222C198.321 125.273 198.052 124.44 197.676 123.724C197.3 122.99 196.79 122.417 196.146 122.005C195.501 121.594 194.695 121.388 193.729 121.388C192.78 121.388 191.983 121.594 191.338 122.005C190.712 122.417 190.21 122.99 189.834 123.724C189.458 124.44 189.19 125.273 189.029 126.222C188.868 127.153 188.787 128.146 188.787 129.203ZM224.935 144H216.26L216.314 136.749H224.935C226.725 136.749 228.238 136.319 229.473 135.46C230.726 134.601 231.675 133.32 232.32 131.62C232.982 129.901 233.313 127.788 233.313 125.282V123.59C233.313 121.71 233.125 120.063 232.75 118.648C232.391 117.216 231.854 116.026 231.138 115.077C230.422 114.11 229.527 113.385 228.453 112.901C227.396 112.418 226.179 112.176 224.8 112.176H216.099V104.898H224.8C227.45 104.898 229.876 105.355 232.078 106.268C234.298 107.163 236.214 108.452 237.825 110.135C239.454 111.8 240.708 113.779 241.585 116.07C242.48 118.344 242.928 120.868 242.928 123.644V125.282C242.928 128.039 242.48 130.563 241.585 132.855C240.708 135.147 239.463 137.125 237.852 138.79C236.241 140.455 234.334 141.744 232.132 142.657C229.948 143.552 227.549 144 224.935 144ZM221.658 104.898V144H212.232V104.898H221.658ZM256.973 114.942V144H247.896V114.942H256.973ZM247.359 107.45C247.359 106.161 247.824 105.104 248.755 104.281C249.686 103.457 250.895 103.045 252.381 103.045C253.867 103.045 255.075 103.457 256.006 104.281C256.937 105.104 257.403 106.161 257.403 107.45C257.403 108.739 256.937 109.795 256.006 110.619C255.075 111.442 253.867 111.854 252.381 111.854C250.895 111.854 249.686 111.442 248.755 110.619C247.824 109.795 247.359 108.739 247.359 107.45ZM276.631 144.537C274.268 144.537 272.155 144.17 270.293 143.436C268.431 142.684 266.856 141.655 265.567 140.348C264.296 139.041 263.32 137.537 262.64 135.836C261.977 134.135 261.646 132.336 261.646 130.438V129.417C261.646 127.287 261.941 125.318 262.532 123.509C263.123 121.683 264 120.09 265.164 118.729C266.328 117.368 267.787 116.312 269.542 115.56C271.296 114.79 273.337 114.405 275.665 114.405C277.723 114.405 279.568 114.736 281.197 115.399C282.826 116.061 284.205 117.01 285.333 118.246C286.478 119.481 287.347 120.976 287.938 122.73C288.546 124.485 288.851 126.454 288.851 128.639V132.318H265.11V126.651H280.015V125.953C280.033 124.986 279.863 124.163 279.505 123.482C279.165 122.802 278.663 122.283 278.001 121.925C277.339 121.567 276.533 121.388 275.584 121.388C274.599 121.388 273.785 121.603 273.14 122.032C272.514 122.462 272.021 123.053 271.663 123.805C271.323 124.539 271.081 125.389 270.938 126.356C270.795 127.323 270.723 128.343 270.723 129.417V130.438C270.723 131.512 270.866 132.488 271.153 133.365C271.457 134.243 271.887 134.994 272.442 135.621C273.015 136.23 273.695 136.704 274.483 137.044C275.289 137.385 276.202 137.555 277.222 137.555C278.458 137.555 279.675 137.322 280.875 136.856C282.074 136.391 283.104 135.621 283.963 134.547L288.072 139.435C287.481 140.276 286.639 141.091 285.547 141.878C284.473 142.666 283.184 143.311 281.68 143.812C280.176 144.295 278.493 144.537 276.631 144.537ZM307.837 114.942V121.227H290.328V114.942H307.837ZM294.007 107.718H303.057V134.52C303.057 135.29 303.147 135.89 303.326 136.319C303.505 136.731 303.809 137.027 304.239 137.206C304.686 137.367 305.277 137.447 306.011 137.447C306.53 137.447 306.96 137.438 307.3 137.42C307.64 137.385 307.963 137.34 308.267 137.286V143.758C307.497 144.009 306.692 144.197 305.85 144.322C305.009 144.465 304.113 144.537 303.165 144.537C301.231 144.537 299.575 144.233 298.196 143.624C296.836 143.015 295.797 142.057 295.081 140.75C294.365 139.444 294.007 137.743 294.007 135.648V107.718Z" fill="black"/>
<path d="M96.563 55.1172H100.904L107.295 73.3862L113.687 55.1172H118.028L109.039 80H105.552L96.563 55.1172ZM94.2217 55.1172H98.5454L99.3315 72.9248V80H94.2217V55.1172ZM116.045 55.1172H120.386V80H115.259V72.9248L116.045 55.1172ZM123.787 70.9424V70.5835C123.787 69.2277 123.981 67.9801 124.368 66.8408C124.756 65.6901 125.319 64.6932 126.06 63.8501C126.801 63.007 127.712 62.3519 128.794 61.8848C129.877 61.4062 131.119 61.167 132.52 61.167C133.921 61.167 135.169 61.4062 136.263 61.8848C137.356 62.3519 138.274 63.007 139.014 63.8501C139.766 64.6932 140.336 65.6901 140.723 66.8408C141.111 67.9801 141.304 69.2277 141.304 70.5835V70.9424C141.304 72.2868 141.111 73.5343 140.723 74.6851C140.336 75.8244 139.766 76.8213 139.014 77.6758C138.274 78.5189 137.362 79.174 136.28 79.6411C135.197 80.1082 133.956 80.3418 132.554 80.3418C131.153 80.3418 129.905 80.1082 128.812 79.6411C127.729 79.174 126.812 78.5189 126.06 77.6758C125.319 76.8213 124.756 75.8244 124.368 74.6851C123.981 73.5343 123.787 72.2868 123.787 70.9424ZM128.709 70.5835V70.9424C128.709 71.7171 128.777 72.4406 128.914 73.1128C129.051 73.785 129.267 74.3774 129.563 74.8901C129.871 75.3914 130.27 75.7845 130.76 76.0693C131.25 76.3542 131.848 76.4966 132.554 76.4966C133.238 76.4966 133.825 76.3542 134.314 76.0693C134.804 75.7845 135.197 75.3914 135.494 74.8901C135.79 74.3774 136.006 73.785 136.143 73.1128C136.291 72.4406 136.365 71.7171 136.365 70.9424V70.5835C136.365 69.8315 136.291 69.1252 136.143 68.4644C136.006 67.7922 135.784 67.1997 135.477 66.687C135.18 66.1629 134.787 65.7528 134.297 65.4565C133.807 65.1603 133.215 65.0122 132.52 65.0122C131.825 65.0122 131.233 65.1603 130.743 65.4565C130.264 65.7528 129.871 66.1629 129.563 66.687C129.267 67.1997 129.051 67.7922 128.914 68.4644C128.777 69.1252 128.709 69.8315 128.709 70.5835ZM149.131 53.75V80H144.209V53.75H149.131ZM148.431 70.105H147.081C147.092 68.8175 147.263 67.6326 147.593 66.5503C147.924 65.4565 148.396 64.5109 149.012 63.7134C149.627 62.9045 150.362 62.2778 151.216 61.8335C152.082 61.3892 153.039 61.167 154.087 61.167C154.999 61.167 155.825 61.298 156.565 61.5601C157.317 61.8107 157.961 62.2209 158.497 62.7905C159.043 63.3488 159.465 64.0837 159.761 64.9951C160.057 65.9066 160.206 67.0117 160.206 68.3105V80H155.25V68.2764C155.25 67.4561 155.13 66.8123 154.891 66.3452C154.663 65.8667 154.327 65.5306 153.882 65.3369C153.449 65.1318 152.914 65.0293 152.276 65.0293C151.569 65.0293 150.966 65.1603 150.464 65.4224C149.974 65.6844 149.581 66.049 149.285 66.5161C148.989 66.9718 148.772 67.5073 148.636 68.1226C148.499 68.7378 148.431 69.3986 148.431 70.105ZM173.929 75.8301V67.5928C173.929 67.0003 173.832 66.4933 173.638 66.0718C173.444 65.6388 173.143 65.3027 172.732 65.0635C172.334 64.8242 171.815 64.7046 171.177 64.7046C170.63 64.7046 170.158 64.8014 169.759 64.9951C169.36 65.1774 169.052 65.4451 168.836 65.7983C168.619 66.1401 168.511 66.5446 168.511 67.0117H163.589C163.589 66.2256 163.772 65.4793 164.136 64.7729C164.501 64.0666 165.031 63.4456 165.726 62.9102C166.421 62.3633 167.247 61.936 168.204 61.6284C169.172 61.3208 170.254 61.167 171.451 61.167C172.886 61.167 174.162 61.4062 175.279 61.8848C176.395 62.3633 177.273 63.0811 177.911 64.0381C178.56 64.9951 178.885 66.1914 178.885 67.627V75.5396C178.885 76.5535 178.947 77.3853 179.073 78.0347C179.198 78.6727 179.38 79.231 179.62 79.7095V80H174.646C174.407 79.4987 174.225 78.8721 174.1 78.1201C173.986 77.3568 173.929 76.5934 173.929 75.8301ZM174.578 68.7378L174.612 71.5234H171.861C171.211 71.5234 170.647 71.5975 170.169 71.7456C169.69 71.8937 169.297 72.1045 168.99 72.3779C168.682 72.64 168.454 72.9476 168.306 73.3008C168.169 73.654 168.101 74.0413 168.101 74.4629C168.101 74.8844 168.198 75.2661 168.392 75.6079C168.585 75.9383 168.864 76.2004 169.229 76.394C169.594 76.5763 170.021 76.6675 170.511 76.6675C171.251 76.6675 171.895 76.5194 172.442 76.2231C172.989 75.9269 173.41 75.5623 173.707 75.1294C174.014 74.6965 174.174 74.2863 174.185 73.8989L175.484 75.9839C175.302 76.451 175.051 76.9352 174.732 77.4365C174.424 77.9378 174.031 78.4106 173.553 78.855C173.074 79.2879 172.499 79.6468 171.827 79.9316C171.154 80.2051 170.357 80.3418 169.434 80.3418C168.261 80.3418 167.195 80.1082 166.238 79.6411C165.293 79.1626 164.541 78.5075 163.982 77.6758C163.436 76.8327 163.162 75.8757 163.162 74.8047C163.162 73.8363 163.344 72.9761 163.709 72.2241C164.074 71.4722 164.609 70.8398 165.315 70.3271C166.033 69.8031 166.928 69.41 167.999 69.1479C169.069 68.8745 170.311 68.7378 171.724 68.7378H174.578ZM187.601 65.3369V80H182.662V61.5088H187.293L187.601 65.3369ZM186.917 70.105H185.55C185.55 68.8175 185.704 67.6326 186.011 66.5503C186.33 65.4565 186.792 64.5109 187.396 63.7134C188.011 62.9045 188.768 62.2778 189.668 61.8335C190.569 61.3892 191.611 61.167 192.796 61.167C193.616 61.167 194.368 61.2923 195.052 61.543C195.735 61.7822 196.322 62.1639 196.812 62.688C197.313 63.2007 197.701 63.8729 197.974 64.7046C198.248 65.5249 198.384 66.5104 198.384 67.6611V80H193.462V68.208C193.462 67.3649 193.348 66.7155 193.121 66.2598C192.893 65.804 192.568 65.485 192.146 65.3027C191.736 65.1204 191.241 65.0293 190.66 65.0293C190.022 65.0293 189.463 65.1603 188.985 65.4224C188.518 65.6844 188.13 66.049 187.823 66.5161C187.515 66.9718 187.287 67.5073 187.139 68.1226C186.991 68.7378 186.917 69.3986 186.917 70.105ZM197.923 69.541L196.163 69.7632C196.163 68.5555 196.311 67.4333 196.607 66.3965C196.915 65.3597 197.365 64.4482 197.957 63.6621C198.561 62.876 199.307 62.2664 200.196 61.8335C201.084 61.3892 202.11 61.167 203.272 61.167C204.161 61.167 204.97 61.298 205.699 61.5601C206.428 61.8107 207.049 62.2152 207.562 62.7734C208.086 63.3203 208.484 64.0381 208.758 64.9268C209.043 65.8154 209.185 66.9035 209.185 68.1909V80H204.246V68.1909C204.246 67.3364 204.132 66.687 203.904 66.2427C203.688 65.7869 203.369 65.4736 202.947 65.3027C202.537 65.1204 202.047 65.0293 201.478 65.0293C200.885 65.0293 200.367 65.1489 199.922 65.3882C199.478 65.616 199.108 65.9351 198.812 66.3452C198.515 66.7554 198.293 67.2339 198.145 67.7808C197.997 68.3162 197.923 68.903 197.923 69.541ZM222.977 75.8301V67.5928C222.977 67.0003 222.88 66.4933 222.686 66.0718C222.492 65.6388 222.19 65.3027 221.78 65.0635C221.382 64.8242 220.863 64.7046 220.225 64.7046C219.678 64.7046 219.205 64.8014 218.807 64.9951C218.408 65.1774 218.1 65.4451 217.884 65.7983C217.667 66.1401 217.559 66.5446 217.559 67.0117H212.637C212.637 66.2256 212.819 65.4793 213.184 64.7729C213.549 64.0666 214.078 63.4456 214.773 62.9102C215.468 62.3633 216.294 61.936 217.251 61.6284C218.22 61.3208 219.302 61.167 220.499 61.167C221.934 61.167 223.21 61.4062 224.327 61.8848C225.443 62.3633 226.32 63.0811 226.958 64.0381C227.608 64.9951 227.933 66.1914 227.933 67.627V75.5396C227.933 76.5535 227.995 77.3853 228.121 78.0347C228.246 78.6727 228.428 79.231 228.667 79.7095V80H223.694C223.455 79.4987 223.273 78.8721 223.147 78.1201C223.034 77.3568 222.977 76.5934 222.977 75.8301ZM223.626 68.7378L223.66 71.5234H220.909C220.259 71.5234 219.695 71.5975 219.217 71.7456C218.738 71.8937 218.345 72.1045 218.038 72.3779C217.73 72.64 217.502 72.9476 217.354 73.3008C217.217 73.654 217.149 74.0413 217.149 74.4629C217.149 74.8844 217.246 75.2661 217.439 75.6079C217.633 75.9383 217.912 76.2004 218.277 76.394C218.641 76.5763 219.069 76.6675 219.559 76.6675C220.299 76.6675 220.943 76.5194 221.49 76.2231C222.037 75.9269 222.458 75.5623 222.754 75.1294C223.062 74.6965 223.222 74.2863 223.233 73.8989L224.532 75.9839C224.349 76.451 224.099 76.9352 223.78 77.4365C223.472 77.9378 223.079 78.4106 222.601 78.855C222.122 79.2879 221.547 79.6468 220.875 79.9316C220.202 80.2051 219.405 80.3418 218.482 80.3418C217.308 80.3418 216.243 80.1082 215.286 79.6411C214.34 79.1626 213.589 78.5075 213.03 77.6758C212.483 76.8327 212.21 75.8757 212.21 74.8047C212.21 73.8363 212.392 72.9761 212.757 72.2241C213.121 71.4722 213.657 70.8398 214.363 70.3271C215.081 69.8031 215.975 69.41 217.046 69.1479C218.117 68.8745 219.359 68.7378 220.772 68.7378H223.626ZM242.647 75.9668V53.75H247.603V80H243.143L242.647 75.9668ZM230.958 70.9766V70.6177C230.958 69.2049 231.117 67.9232 231.436 66.7725C231.755 65.6104 232.222 64.6134 232.837 63.7817C233.453 62.95 234.21 62.3063 235.11 61.8506C236.01 61.3949 237.036 61.167 238.187 61.167C239.269 61.167 240.215 61.3949 241.023 61.8506C241.844 62.3063 242.539 62.9557 243.108 63.7988C243.689 64.6305 244.157 65.616 244.51 66.7554C244.863 67.8833 245.119 69.1195 245.279 70.4639V71.25C245.119 72.5374 244.863 73.7337 244.51 74.8389C244.157 75.944 243.689 76.9124 243.108 77.7441C242.539 78.5645 241.844 79.2025 241.023 79.6582C240.203 80.1139 239.246 80.3418 238.152 80.3418C237.002 80.3418 235.976 80.1082 235.076 79.6411C234.188 79.174 233.436 78.5189 232.82 77.6758C232.216 76.8327 231.755 75.8415 231.436 74.7021C231.117 73.5628 230.958 72.321 230.958 70.9766ZM235.879 70.6177V70.9766C235.879 71.7399 235.936 72.452 236.05 73.1128C236.176 73.7736 236.375 74.3604 236.648 74.873C236.933 75.3743 237.298 75.7674 237.742 76.0522C238.198 76.3257 238.75 76.4624 239.4 76.4624C240.243 76.4624 240.938 76.2744 241.485 75.8984C242.032 75.5111 242.448 74.9813 242.732 74.3091C243.029 73.6369 243.2 72.8621 243.245 71.9849V69.7461C243.211 69.0283 243.108 68.3846 242.938 67.8149C242.778 67.2339 242.539 66.7383 242.22 66.3281C241.912 65.918 241.525 65.599 241.058 65.3711C240.602 65.1432 240.061 65.0293 239.434 65.0293C238.796 65.0293 238.249 65.1774 237.793 65.4736C237.338 65.7585 236.967 66.1515 236.683 66.6528C236.409 67.1541 236.204 67.7466 236.067 68.4302C235.942 69.1024 235.879 69.8315 235.879 70.6177ZM280.723 55.1172V80H275.596L265.599 63.3203V80H260.472V55.1172H265.599L275.613 71.814V55.1172H280.723ZM294.856 75.8301V67.5928C294.856 67.0003 294.76 66.4933 294.566 66.0718C294.372 65.6388 294.07 65.3027 293.66 65.0635C293.261 64.8242 292.743 64.7046 292.105 64.7046C291.558 64.7046 291.085 64.8014 290.687 64.9951C290.288 65.1774 289.98 65.4451 289.764 65.7983C289.547 66.1401 289.439 66.5446 289.439 67.0117H284.517C284.517 66.2256 284.699 65.4793 285.064 64.7729C285.429 64.0666 285.958 63.4456 286.653 62.9102C287.348 62.3633 288.174 61.936 289.131 61.6284C290.1 61.3208 291.182 61.167 292.378 61.167C293.814 61.167 295.09 61.4062 296.207 61.8848C297.323 62.3633 298.2 63.0811 298.838 64.0381C299.488 64.9951 299.812 66.1914 299.812 67.627V75.5396C299.812 76.5535 299.875 77.3853 300 78.0347C300.126 78.6727 300.308 79.231 300.547 79.7095V80H295.574C295.335 79.4987 295.153 78.8721 295.027 78.1201C294.913 77.3568 294.856 76.5934 294.856 75.8301ZM295.506 68.7378L295.54 71.5234H292.789C292.139 71.5234 291.575 71.5975 291.097 71.7456C290.618 71.8937 290.225 72.1045 289.917 72.3779C289.61 72.64 289.382 72.9476 289.234 73.3008C289.097 73.654 289.029 74.0413 289.029 74.4629C289.029 74.8844 289.126 75.2661 289.319 75.6079C289.513 75.9383 289.792 76.2004 290.157 76.394C290.521 76.5763 290.949 76.6675 291.438 76.6675C292.179 76.6675 292.823 76.5194 293.37 76.2231C293.917 75.9269 294.338 75.5623 294.634 75.1294C294.942 74.6965 295.101 74.2863 295.113 73.8989L296.412 75.9839C296.229 76.451 295.979 76.9352 295.66 77.4365C295.352 77.9378 294.959 78.4106 294.48 78.855C294.002 79.2879 293.427 79.6468 292.754 79.9316C292.082 80.2051 291.285 80.3418 290.362 80.3418C289.188 80.3418 288.123 80.1082 287.166 79.6411C286.22 79.1626 285.468 78.5075 284.91 77.6758C284.363 76.8327 284.09 75.8757 284.09 74.8047C284.09 73.8363 284.272 72.9761 284.637 72.2241C285.001 71.4722 285.537 70.8398 286.243 70.3271C286.961 69.8031 287.855 69.41 288.926 69.1479C289.997 68.8745 291.239 68.7378 292.652 68.7378H295.506ZM313.604 74.8901C313.604 74.5369 313.501 74.2179 313.296 73.9331C313.091 73.6483 312.71 73.3862 312.151 73.147C311.604 72.8963 310.813 72.6685 309.776 72.4634C308.842 72.2583 307.97 72.002 307.161 71.6943C306.364 71.3753 305.669 70.9937 305.076 70.5493C304.495 70.105 304.039 69.5809 303.709 68.9771C303.379 68.3618 303.213 67.6611 303.213 66.875C303.213 66.1003 303.379 65.3711 303.709 64.6875C304.051 64.0039 304.535 63.4001 305.162 62.876C305.8 62.3405 306.574 61.9246 307.486 61.6284C308.409 61.3208 309.445 61.167 310.596 61.167C312.203 61.167 313.581 61.4233 314.732 61.936C315.894 62.4487 316.783 63.1551 317.398 64.0552C318.025 64.9438 318.338 65.9578 318.338 67.0972H313.416C313.416 66.6187 313.313 66.1914 313.108 65.8154C312.915 65.4281 312.607 65.1261 312.186 64.9097C311.775 64.6818 311.24 64.5679 310.579 64.5679C310.032 64.5679 309.559 64.6647 309.161 64.8584C308.762 65.0407 308.454 65.2913 308.238 65.6104C308.033 65.918 307.93 66.2598 307.93 66.6357C307.93 66.9206 307.987 67.1769 308.101 67.4048C308.226 67.6213 308.426 67.8206 308.699 68.0029C308.973 68.1852 309.326 68.3561 309.759 68.5156C310.203 68.6637 310.75 68.8005 311.399 68.9258C312.732 69.1992 313.923 69.5581 314.971 70.0024C316.019 70.4354 316.851 71.0278 317.466 71.7798C318.082 72.5203 318.389 73.4945 318.389 74.7021C318.389 75.5225 318.207 76.2744 317.842 76.958C317.478 77.6416 316.954 78.2397 316.27 78.7524C315.586 79.2537 314.766 79.6468 313.809 79.9316C312.863 80.2051 311.798 80.3418 310.613 80.3418C308.893 80.3418 307.435 80.0342 306.238 79.4189C305.053 78.8037 304.153 78.0233 303.538 77.0776C302.934 76.1206 302.632 75.1408 302.632 74.1382H307.298C307.321 74.8104 307.492 75.3516 307.811 75.7617C308.141 76.1719 308.557 76.4681 309.058 76.6504C309.571 76.8327 310.123 76.9238 310.716 76.9238C311.354 76.9238 311.884 76.8384 312.305 76.6675C312.727 76.4852 313.046 76.2459 313.262 75.9497C313.49 75.6421 313.604 75.2889 313.604 74.8901ZM331.583 74.8901C331.583 74.5369 331.48 74.2179 331.275 73.9331C331.07 73.6483 330.688 73.3862 330.13 73.147C329.583 72.8963 328.791 72.6685 327.754 72.4634C326.82 72.2583 325.949 72.002 325.14 71.6943C324.342 71.3753 323.647 70.9937 323.055 70.5493C322.474 70.105 322.018 69.5809 321.688 68.9771C321.357 68.3618 321.192 67.6611 321.192 66.875C321.192 66.1003 321.357 65.3711 321.688 64.6875C322.029 64.0039 322.514 63.4001 323.14 62.876C323.778 62.3405 324.553 61.9246 325.464 61.6284C326.387 61.3208 327.424 61.167 328.575 61.167C330.181 61.167 331.56 61.4233 332.71 61.936C333.873 62.4487 334.761 63.1551 335.376 64.0552C336.003 64.9438 336.316 65.9578 336.316 67.0972H331.395C331.395 66.6187 331.292 66.1914 331.087 65.8154C330.893 65.4281 330.586 65.1261 330.164 64.9097C329.754 64.6818 329.218 64.5679 328.558 64.5679C328.011 64.5679 327.538 64.6647 327.139 64.8584C326.74 65.0407 326.433 65.2913 326.216 65.6104C326.011 65.918 325.909 66.2598 325.909 66.6357C325.909 66.9206 325.966 67.1769 326.08 67.4048C326.205 67.6213 326.404 67.8206 326.678 68.0029C326.951 68.1852 327.304 68.3561 327.737 68.5156C328.182 68.6637 328.729 68.8005 329.378 68.9258C330.711 69.1992 331.902 69.5581 332.95 70.0024C333.998 70.4354 334.83 71.0278 335.445 71.7798C336.06 72.5203 336.368 73.4945 336.368 74.7021C336.368 75.5225 336.185 76.2744 335.821 76.958C335.456 77.6416 334.932 78.2397 334.249 78.7524C333.565 79.2537 332.745 79.6468 331.788 79.9316C330.842 80.2051 329.777 80.3418 328.592 80.3418C326.871 80.3418 325.413 80.0342 324.217 79.4189C323.032 78.8037 322.132 78.0233 321.517 77.0776C320.913 76.1206 320.611 75.1408 320.611 74.1382H325.276C325.299 74.8104 325.47 75.3516 325.789 75.7617C326.119 76.1719 326.535 76.4681 327.037 76.6504C327.549 76.8327 328.102 76.9238 328.694 76.9238C329.332 76.9238 329.862 76.8384 330.284 76.6675C330.705 76.4852 331.024 76.2459 331.241 75.9497C331.469 75.6421 331.583 75.2889 331.583 74.8901ZM349.544 75.8301V67.5928C349.544 67.0003 349.447 66.4933 349.253 66.0718C349.06 65.6388 348.758 65.3027 348.348 65.0635C347.949 64.8242 347.431 64.7046 346.792 64.7046C346.246 64.7046 345.773 64.8014 345.374 64.9951C344.975 65.1774 344.668 65.4451 344.451 65.7983C344.235 66.1401 344.126 66.5446 344.126 67.0117H339.205C339.205 66.2256 339.387 65.4793 339.751 64.7729C340.116 64.0666 340.646 63.4456 341.341 62.9102C342.036 62.3633 342.862 61.936 343.819 61.6284C344.787 61.3208 345.87 61.167 347.066 61.167C348.501 61.167 349.778 61.4062 350.894 61.8848C352.011 62.3633 352.888 63.0811 353.526 64.0381C354.175 64.9951 354.5 66.1914 354.5 67.627V75.5396C354.5 76.5535 354.563 77.3853 354.688 78.0347C354.813 78.6727 354.996 79.231 355.235 79.7095V80H350.262C350.022 79.4987 349.84 78.8721 349.715 78.1201C349.601 77.3568 349.544 76.5934 349.544 75.8301ZM350.193 68.7378L350.228 71.5234H347.476C346.827 71.5234 346.263 71.5975 345.784 71.7456C345.306 71.8937 344.913 72.1045 344.605 72.3779C344.297 72.64 344.069 72.9476 343.921 73.3008C343.785 73.654 343.716 74.0413 343.716 74.4629C343.716 74.8844 343.813 75.2661 344.007 75.6079C344.201 75.9383 344.48 76.2004 344.844 76.394C345.209 76.5763 345.636 76.6675 346.126 76.6675C346.867 76.6675 347.51 76.5194 348.057 76.2231C348.604 75.9269 349.026 75.5623 349.322 75.1294C349.629 74.6965 349.789 74.2863 349.8 73.8989L351.099 75.9839C350.917 76.451 350.666 76.9352 350.347 77.4365C350.04 77.9378 349.646 78.4106 349.168 78.855C348.689 79.2879 348.114 79.6468 347.442 79.9316C346.77 80.2051 345.972 80.3418 345.049 80.3418C343.876 80.3418 342.811 80.1082 341.854 79.6411C340.908 79.1626 340.156 78.5075 339.598 77.6758C339.051 76.8327 338.777 75.8757 338.777 74.8047C338.777 73.8363 338.96 72.9761 339.324 72.2241C339.689 71.4722 340.224 70.8398 340.931 70.3271C341.648 69.8031 342.543 69.41 343.614 69.1479C344.685 68.8745 345.927 68.7378 347.339 68.7378H350.193ZM363.216 65.542V80H358.294V61.5088H362.925L363.216 65.542ZM368.787 61.3892L368.702 65.9521C368.462 65.918 368.172 65.8895 367.83 65.8667C367.5 65.8325 367.198 65.8154 366.924 65.8154C366.229 65.8154 365.625 65.9066 365.113 66.0889C364.611 66.2598 364.19 66.5161 363.848 66.8579C363.518 67.1997 363.267 67.6156 363.096 68.1055C362.937 68.5954 362.846 69.1536 362.823 69.7803L361.832 69.4727C361.832 68.2764 361.951 67.1769 362.19 66.1743C362.43 65.1603 362.777 64.2773 363.233 63.5254C363.7 62.7734 364.27 62.1924 364.942 61.7822C365.614 61.3721 366.383 61.167 367.249 61.167C367.522 61.167 367.802 61.1898 368.086 61.2354C368.371 61.2695 368.605 61.3208 368.787 61.3892Z" fill="#888888"/>
<rect x="92" y="181" width="1179" height="80" rx="13.3333" fill="#CCCCCC"/>
<rect x="107" y="196.333" width="208" height="49.3333" rx="4.66667" fill="#888888" stroke="#888888" stroke-width="4"/>
<path d="M171.823 213.167H177.792C178.958 213.167 179.972 213.34 180.833 213.687C181.694 214.035 182.358 214.549 182.823 215.229C183.295 215.91 183.531 216.75 183.531 217.75C183.531 218.618 183.396 219.344 183.125 219.927C182.854 220.51 182.476 220.993 181.99 221.375C181.51 221.75 180.951 222.059 180.312 222.302L179.115 222.979H174.104L174.083 220.156H177.792C178.257 220.156 178.642 220.073 178.948 219.906C179.253 219.74 179.483 219.503 179.635 219.198C179.795 218.885 179.875 218.514 179.875 218.083C179.875 217.646 179.795 217.271 179.635 216.958C179.476 216.646 179.24 216.406 178.927 216.24C178.622 216.073 178.243 215.99 177.792 215.99H175.479V228.333H171.823V213.167ZM180.125 228.333L176.771 221.625L180.646 221.604L184.042 228.177V228.333H180.125ZM191.031 228.542C190.115 228.542 189.295 228.399 188.573 228.115C187.851 227.823 187.24 227.424 186.74 226.917C186.247 226.41 185.868 225.826 185.604 225.167C185.347 224.507 185.219 223.809 185.219 223.073V222.677C185.219 221.851 185.333 221.087 185.562 220.385C185.792 219.677 186.132 219.059 186.583 218.531C187.035 218.003 187.601 217.594 188.281 217.302C188.962 217.003 189.753 216.854 190.656 216.854C191.455 216.854 192.17 216.983 192.802 217.24C193.434 217.497 193.969 217.865 194.406 218.344C194.851 218.823 195.187 219.403 195.417 220.083C195.653 220.764 195.771 221.528 195.771 222.375V223.802H186.562V221.604H192.344V221.333C192.351 220.958 192.285 220.639 192.146 220.375C192.014 220.111 191.819 219.91 191.562 219.771C191.306 219.632 190.993 219.562 190.625 219.562C190.243 219.562 189.927 219.646 189.677 219.812C189.434 219.979 189.243 220.208 189.104 220.5C188.972 220.785 188.878 221.115 188.823 221.49C188.767 221.865 188.74 222.26 188.74 222.677V223.073C188.74 223.49 188.795 223.868 188.906 224.208C189.024 224.549 189.191 224.84 189.406 225.083C189.628 225.319 189.892 225.503 190.198 225.635C190.51 225.767 190.865 225.833 191.26 225.833C191.74 225.833 192.212 225.743 192.677 225.562C193.142 225.382 193.542 225.083 193.875 224.667L195.469 226.562C195.24 226.889 194.913 227.205 194.49 227.51C194.073 227.816 193.573 228.066 192.99 228.26C192.406 228.448 191.753 228.542 191.031 228.542ZM203.052 225.5V220.854C203.052 220.535 203.007 220.26 202.917 220.031C202.826 219.802 202.684 219.625 202.49 219.5C202.295 219.368 202.035 219.302 201.708 219.302C201.444 219.302 201.219 219.347 201.031 219.437C200.844 219.528 200.701 219.663 200.604 219.844C200.507 220.024 200.458 220.253 200.458 220.531H196.948C196.948 220.01 197.062 219.528 197.292 219.083C197.528 218.632 197.861 218.24 198.292 217.906C198.729 217.573 199.25 217.316 199.854 217.135C200.465 216.948 201.146 216.854 201.896 216.854C202.792 216.854 203.59 217.003 204.292 217.302C205 217.601 205.559 218.049 205.969 218.646C206.378 219.236 206.583 219.979 206.583 220.875V225.49C206.583 226.226 206.625 226.785 206.708 227.167C206.792 227.542 206.91 227.872 207.062 228.156V228.333H203.542C203.375 227.986 203.25 227.562 203.167 227.062C203.09 226.556 203.052 226.035 203.052 225.5ZM203.479 221.448L203.5 223.323H201.948C201.622 223.323 201.344 223.368 201.115 223.458C200.892 223.549 200.712 223.674 200.573 223.833C200.441 223.986 200.344 224.16 200.281 224.354C200.226 224.549 200.198 224.753 200.198 224.969C200.198 225.177 200.247 225.365 200.344 225.531C200.448 225.691 200.587 225.816 200.76 225.906C200.934 225.997 201.128 226.042 201.344 226.042C201.733 226.042 202.062 225.969 202.333 225.823C202.611 225.67 202.823 225.486 202.969 225.271C203.115 225.056 203.187 224.854 203.187 224.667L203.958 226.104C203.819 226.382 203.66 226.663 203.479 226.948C203.306 227.233 203.087 227.497 202.823 227.74C202.566 227.976 202.25 228.17 201.875 228.323C201.5 228.469 201.045 228.542 200.51 228.542C199.816 228.542 199.177 228.399 198.594 228.115C198.017 227.83 197.556 227.434 197.208 226.927C196.861 226.413 196.687 225.823 196.687 225.156C196.687 224.573 196.792 224.052 197 223.594C197.215 223.135 197.538 222.747 197.969 222.427C198.399 222.108 198.948 221.865 199.615 221.698C200.281 221.531 201.066 221.448 201.969 221.448H203.479ZM213.292 225.833C213.618 225.833 213.896 225.774 214.125 225.656C214.361 225.531 214.538 225.358 214.656 225.135C214.781 224.906 214.84 224.632 214.833 224.312H218.135C218.142 225.16 217.934 225.903 217.51 226.542C217.094 227.174 216.524 227.667 215.802 228.021C215.087 228.368 214.278 228.542 213.375 228.542C212.493 228.542 211.722 228.399 211.062 228.115C210.403 227.823 209.851 227.42 209.406 226.906C208.969 226.385 208.639 225.778 208.417 225.083C208.201 224.389 208.094 223.635 208.094 222.823V222.583C208.094 221.771 208.201 221.017 208.417 220.323C208.639 219.622 208.969 219.014 209.406 218.5C209.851 217.979 210.399 217.576 211.052 217.292C211.712 217 212.479 216.854 213.354 216.854C214.292 216.854 215.118 217.031 215.833 217.385C216.556 217.74 217.122 218.253 217.531 218.927C217.941 219.601 218.142 220.417 218.135 221.375H214.833C214.84 221.035 214.788 220.729 214.677 220.458C214.566 220.187 214.392 219.972 214.156 219.812C213.927 219.646 213.632 219.562 213.271 219.562C212.91 219.562 212.618 219.642 212.396 219.802C212.174 219.962 212.003 220.184 211.885 220.469C211.774 220.747 211.698 221.066 211.656 221.427C211.622 221.788 211.604 222.174 211.604 222.583V222.823C211.604 223.24 211.622 223.632 211.656 224C211.698 224.361 211.778 224.681 211.896 224.958C212.014 225.229 212.184 225.444 212.406 225.604C212.628 225.757 212.924 225.833 213.292 225.833ZM225.573 217.062V219.5H218.781V217.062H225.573ZM220.208 214.26H223.719V224.656C223.719 224.955 223.753 225.187 223.823 225.354C223.892 225.514 224.01 225.628 224.177 225.698C224.351 225.76 224.58 225.792 224.865 225.792C225.066 225.792 225.233 225.788 225.365 225.781C225.497 225.767 225.622 225.75 225.74 225.729V228.24C225.441 228.337 225.128 228.41 224.802 228.458C224.476 228.514 224.128 228.542 223.76 228.542C223.01 228.542 222.368 228.424 221.833 228.187C221.306 227.951 220.903 227.58 220.625 227.073C220.347 226.566 220.208 225.906 220.208 225.094V214.26ZM233.167 223.573V213.167H236.812V223.573C236.812 224.587 236.58 225.465 236.115 226.208C235.656 226.951 235.031 227.528 234.24 227.937C233.455 228.34 232.573 228.542 231.594 228.542C230.58 228.542 229.677 228.372 228.885 228.031C228.101 227.691 227.483 227.167 227.031 226.458C226.587 225.75 226.365 224.847 226.365 223.75H230.031C230.031 224.264 230.09 224.667 230.208 224.958C230.326 225.243 230.5 225.444 230.729 225.562C230.965 225.674 231.253 225.729 231.594 225.729C231.927 225.729 232.208 225.646 232.437 225.479C232.674 225.306 232.854 225.059 232.979 224.74C233.104 224.413 233.167 224.024 233.167 223.573ZM246.948 224.302C246.948 224.066 246.913 223.854 246.844 223.667C246.774 223.472 246.646 223.292 246.458 223.125C246.271 222.958 246 222.792 245.646 222.625C245.299 222.451 244.84 222.271 244.271 222.083C243.604 221.861 242.962 221.611 242.344 221.333C241.726 221.049 241.174 220.719 240.687 220.344C240.201 219.962 239.816 219.517 239.531 219.01C239.247 218.497 239.104 217.899 239.104 217.219C239.104 216.566 239.25 215.979 239.542 215.458C239.833 214.931 240.24 214.483 240.76 214.115C241.288 213.74 241.906 213.455 242.615 213.26C243.323 213.059 244.097 212.958 244.937 212.958C246.049 212.958 247.028 213.153 247.875 213.542C248.729 213.924 249.396 214.469 249.875 215.177C250.361 215.878 250.604 216.708 250.604 217.667H246.969C246.969 217.285 246.889 216.948 246.729 216.656C246.576 216.365 246.344 216.135 246.031 215.969C245.719 215.802 245.326 215.719 244.854 215.719C244.396 215.719 244.01 215.788 243.698 215.927C243.385 216.066 243.149 216.253 242.99 216.49C242.83 216.719 242.75 216.972 242.75 217.25C242.75 217.479 242.812 217.687 242.937 217.875C243.069 218.056 243.253 218.226 243.49 218.385C243.733 218.545 244.024 218.698 244.365 218.844C244.712 218.99 245.101 219.132 245.531 219.271C246.337 219.528 247.052 219.816 247.677 220.135C248.309 220.448 248.84 220.806 249.271 221.208C249.708 221.604 250.038 222.056 250.26 222.562C250.49 223.069 250.604 223.642 250.604 224.281C250.604 224.962 250.472 225.566 250.208 226.094C249.944 226.622 249.566 227.069 249.073 227.437C248.58 227.799 247.99 228.073 247.302 228.26C246.615 228.448 245.847 228.542 245 228.542C244.222 228.542 243.455 228.444 242.698 228.25C241.948 228.049 241.267 227.743 240.656 227.333C240.045 226.917 239.556 226.385 239.187 225.74C238.826 225.087 238.646 224.312 238.646 223.417H242.312C242.312 223.861 242.372 224.236 242.49 224.542C242.608 224.847 242.781 225.094 243.01 225.281C243.24 225.462 243.521 225.594 243.854 225.677C244.187 225.753 244.569 225.792 245 225.792C245.465 225.792 245.84 225.726 246.125 225.594C246.41 225.455 246.618 225.274 246.75 225.052C246.882 224.823 246.948 224.573 246.948 224.302Z" fill="white"/>
<rect x="339" y="196.333" width="208" height="49.3333" rx="4.66667" fill="#888888" stroke="#888888" stroke-width="4"/>
<path d="M419.073 225.521V228.333H411.406V225.521H419.073ZM412.708 213.167V228.333H409.052V213.167H412.708ZM426.302 225.5V220.854C426.302 220.535 426.257 220.26 426.167 220.031C426.076 219.802 425.934 219.625 425.74 219.5C425.545 219.368 425.285 219.302 424.958 219.302C424.694 219.302 424.469 219.347 424.281 219.437C424.094 219.528 423.951 219.663 423.854 219.844C423.757 220.024 423.708 220.253 423.708 220.531H420.198C420.198 220.01 420.312 219.528 420.542 219.083C420.778 218.632 421.111 218.24 421.542 217.906C421.979 217.573 422.5 217.316 423.104 217.135C423.715 216.948 424.396 216.854 425.146 216.854C426.042 216.854 426.84 217.003 427.542 217.302C428.25 217.601 428.809 218.049 429.219 218.646C429.628 219.236 429.833 219.979 429.833 220.875V225.49C429.833 226.226 429.875 226.785 429.958 227.167C430.042 227.542 430.16 227.872 430.312 228.156V228.333H426.792C426.625 227.986 426.5 227.562 426.417 227.062C426.34 226.556 426.302 226.035 426.302 225.5ZM426.729 221.448L426.75 223.323H425.198C424.872 223.323 424.594 223.368 424.365 223.458C424.142 223.549 423.962 223.674 423.823 223.833C423.691 223.986 423.594 224.16 423.531 224.354C423.476 224.549 423.448 224.753 423.448 224.969C423.448 225.177 423.497 225.365 423.594 225.531C423.698 225.691 423.837 225.816 424.01 225.906C424.184 225.997 424.378 226.042 424.594 226.042C424.983 226.042 425.312 225.969 425.583 225.823C425.861 225.67 426.073 225.486 426.219 225.271C426.365 225.056 426.437 224.854 426.437 224.667L427.208 226.104C427.069 226.382 426.91 226.663 426.729 226.948C426.556 227.233 426.337 227.497 426.073 227.74C425.816 227.976 425.5 228.17 425.125 228.323C424.75 228.469 424.295 228.542 423.76 228.542C423.066 228.542 422.427 228.399 421.844 228.115C421.267 227.83 420.806 227.434 420.458 226.927C420.111 226.413 419.937 225.823 419.937 225.156C419.937 224.573 420.042 224.052 420.25 223.594C420.465 223.135 420.788 222.747 421.219 222.427C421.649 222.108 422.198 221.865 422.865 221.698C423.531 221.531 424.316 221.448 425.219 221.448H426.729ZM435.323 219.854V228.333H431.812V217.062H435.094L435.323 219.854ZM438.656 216.979L438.594 220.24C438.455 220.226 438.267 220.208 438.031 220.187C437.795 220.167 437.597 220.156 437.437 220.156C437.028 220.156 436.674 220.205 436.375 220.302C436.083 220.392 435.84 220.531 435.646 220.719C435.458 220.899 435.319 221.128 435.229 221.406C435.146 221.684 435.108 222.007 435.115 222.375L434.479 221.958C434.479 221.201 434.552 220.514 434.698 219.896C434.851 219.271 435.066 218.733 435.344 218.281C435.622 217.823 435.958 217.472 436.354 217.229C436.75 216.979 437.194 216.854 437.687 216.854C437.861 216.854 438.031 216.865 438.198 216.885C438.372 216.906 438.524 216.937 438.656 216.979ZM445.406 225.5V220.854C445.406 220.535 445.361 220.26 445.271 220.031C445.181 219.802 445.038 219.625 444.844 219.5C444.649 219.368 444.389 219.302 444.063 219.302C443.799 219.302 443.573 219.347 443.385 219.437C443.198 219.528 443.056 219.663 442.958 219.844C442.861 220.024 442.813 220.253 442.813 220.531H439.302C439.302 220.01 439.417 219.528 439.646 219.083C439.882 218.632 440.215 218.24 440.646 217.906C441.083 217.573 441.604 217.316 442.208 217.135C442.819 216.948 443.5 216.854 444.25 216.854C445.146 216.854 445.944 217.003 446.646 217.302C447.354 217.601 447.913 218.049 448.323 218.646C448.733 219.236 448.938 219.979 448.938 220.875V225.49C448.938 226.226 448.979 226.785 449.063 227.167C449.146 227.542 449.264 227.872 449.417 228.156V228.333H445.896C445.729 227.986 445.604 227.562 445.521 227.062C445.444 226.556 445.406 226.035 445.406 225.5ZM445.833 221.448L445.854 223.323H444.302C443.976 223.323 443.698 223.368 443.469 223.458C443.247 223.549 443.066 223.674 442.927 223.833C442.795 223.986 442.698 224.16 442.635 224.354C442.58 224.549 442.552 224.753 442.552 224.969C442.552 225.177 442.601 225.365 442.698 225.531C442.802 225.691 442.941 225.816 443.115 225.906C443.288 225.997 443.483 226.042 443.698 226.042C444.087 226.042 444.417 225.969 444.688 225.823C444.965 225.67 445.177 225.486 445.323 225.271C445.469 225.056 445.542 224.854 445.542 224.667L446.313 226.104C446.174 226.382 446.014 226.663 445.833 226.948C445.66 227.233 445.441 227.497 445.177 227.74C444.92 227.976 444.604 228.17 444.229 228.323C443.854 228.469 443.399 228.542 442.865 228.542C442.17 228.542 441.531 228.399 440.948 228.115C440.372 227.83 439.91 227.434 439.563 226.927C439.215 226.413 439.042 225.823 439.042 225.156C439.042 224.573 439.146 224.052 439.354 223.594C439.569 223.135 439.892 222.747 440.323 222.427C440.753 222.108 441.302 221.865 441.969 221.698C442.635 221.531 443.42 221.448 444.323 221.448H445.833ZM454.781 225.927L457 217.062H460.698L457.01 228.333H454.823L454.781 225.927ZM453.469 217.062L455.656 225.927L455.635 228.333H453.437L449.76 217.062H453.469ZM467.052 228.542C466.135 228.542 465.316 228.399 464.594 228.115C463.872 227.823 463.26 227.424 462.76 226.917C462.267 226.41 461.889 225.826 461.625 225.167C461.368 224.507 461.24 223.809 461.24 223.073V222.677C461.24 221.851 461.354 221.087 461.583 220.385C461.812 219.677 462.153 219.059 462.604 218.531C463.056 218.003 463.622 217.594 464.302 217.302C464.983 217.003 465.774 216.854 466.677 216.854C467.476 216.854 468.191 216.983 468.823 217.24C469.455 217.497 469.99 217.865 470.427 218.344C470.872 218.823 471.208 219.403 471.437 220.083C471.674 220.764 471.792 221.528 471.792 222.375V223.802H462.583V221.604H468.365V221.333C468.372 220.958 468.306 220.639 468.167 220.375C468.035 220.111 467.84 219.91 467.583 219.771C467.326 219.632 467.014 219.562 466.646 219.562C466.264 219.562 465.948 219.646 465.698 219.812C465.455 219.979 465.264 220.208 465.125 220.5C464.993 220.785 464.899 221.115 464.844 221.49C464.788 221.865 464.76 222.26 464.76 222.677V223.073C464.76 223.49 464.816 223.868 464.927 224.208C465.045 224.549 465.212 224.84 465.427 225.083C465.649 225.319 465.913 225.503 466.219 225.635C466.531 225.767 466.885 225.833 467.281 225.833C467.76 225.833 468.233 225.743 468.698 225.562C469.163 225.382 469.562 225.083 469.896 224.667L471.49 226.562C471.26 226.889 470.934 227.205 470.51 227.51C470.094 227.816 469.594 228.066 469.01 228.26C468.427 228.448 467.774 228.542 467.052 228.542ZM476.927 212.333V228.333H473.406V212.333H476.927Z" fill="white"/>
<rect x="571" y="196.333" width="208" height="49.3333" rx="4.66667" fill="#888888" stroke="#888888" stroke-width="4"/>
<path d="M620.396 213.167V228.333H616.74V213.167H620.396ZM624.958 213.167V215.99H612.281V213.167H624.958ZM630.427 225.5V220.854C630.427 220.535 630.382 220.26 630.292 220.031C630.201 219.802 630.059 219.625 629.865 219.5C629.67 219.368 629.41 219.302 629.083 219.302C628.819 219.302 628.594 219.347 628.406 219.437C628.219 219.528 628.076 219.663 627.979 219.844C627.882 220.024 627.833 220.253 627.833 220.531H624.323C624.323 220.01 624.437 219.528 624.667 219.083C624.903 218.632 625.236 218.24 625.667 217.906C626.104 217.573 626.625 217.316 627.229 217.135C627.84 216.948 628.521 216.854 629.271 216.854C630.167 216.854 630.965 217.003 631.667 217.302C632.375 217.601 632.934 218.049 633.344 218.646C633.753 219.236 633.958 219.979 633.958 220.875V225.49C633.958 226.226 634 226.785 634.083 227.167C634.167 227.542 634.285 227.872 634.437 228.156V228.333H630.917C630.75 227.986 630.625 227.562 630.542 227.062C630.465 226.556 630.427 226.035 630.427 225.5ZM630.854 221.448L630.875 223.323H629.323C628.997 223.323 628.719 223.368 628.49 223.458C628.267 223.549 628.087 223.674 627.948 223.833C627.816 223.986 627.719 224.16 627.656 224.354C627.601 224.549 627.573 224.753 627.573 224.969C627.573 225.177 627.622 225.365 627.719 225.531C627.823 225.691 627.962 225.816 628.135 225.906C628.309 225.997 628.503 226.042 628.719 226.042C629.108 226.042 629.437 225.969 629.708 225.823C629.986 225.67 630.198 225.486 630.344 225.271C630.49 225.056 630.562 224.854 630.562 224.667L631.333 226.104C631.194 226.382 631.035 226.663 630.854 226.948C630.681 227.233 630.462 227.497 630.198 227.74C629.941 227.976 629.625 228.17 629.25 228.323C628.875 228.469 628.42 228.542 627.885 228.542C627.191 228.542 626.552 228.399 625.969 228.115C625.392 227.83 624.931 227.434 624.583 226.927C624.236 226.413 624.062 225.823 624.062 225.156C624.062 224.573 624.167 224.052 624.375 223.594C624.59 223.135 624.913 222.747 625.344 222.427C625.774 222.108 626.323 221.865 626.99 221.698C627.656 221.531 628.441 221.448 629.344 221.448H630.854ZM639.615 217.062V228.333H636.094V217.062H639.615ZM635.885 214.156C635.885 213.656 636.066 213.247 636.427 212.927C636.788 212.608 637.257 212.448 637.833 212.448C638.41 212.448 638.878 212.608 639.24 212.927C639.601 213.247 639.781 213.656 639.781 214.156C639.781 214.656 639.601 215.066 639.24 215.385C638.878 215.705 638.41 215.865 637.833 215.865C637.257 215.865 636.788 215.705 636.427 215.385C636.066 215.066 635.885 214.656 635.885 214.156ZM645.49 212.333V228.333H641.969V212.333H645.49ZM651.083 224.979L653.167 217.062H655.365L654.583 221.031L652.521 228.333H650.76L651.083 224.979ZM650.26 217.062L651.552 224.917L651.698 228.333H649.563L646.896 217.062H650.26ZM657.219 224.75L658.521 217.062H661.885L659.24 228.333H657.104L657.219 224.75ZM655.615 217.062L657.719 224.958L658.042 228.333H656.26L654.24 221.052L653.49 217.062H655.615ZM666.865 217.062V228.333H663.344V217.062H666.865ZM663.135 214.156C663.135 213.656 663.316 213.247 663.677 212.927C664.038 212.608 664.507 212.448 665.083 212.448C665.66 212.448 666.128 212.608 666.49 212.927C666.851 213.247 667.031 213.656 667.031 214.156C667.031 214.656 666.851 215.066 666.49 215.385C666.128 215.705 665.66 215.865 665.083 215.865C664.507 215.865 664.038 215.705 663.677 215.385C663.316 215.066 663.135 214.656 663.135 214.156ZM672.479 219.469V228.333H668.969V217.062H672.26L672.479 219.469ZM672.063 222.312L671.24 222.333C671.24 221.472 671.344 220.705 671.552 220.031C671.76 219.351 672.056 218.774 672.438 218.302C672.819 217.83 673.274 217.472 673.802 217.229C674.337 216.979 674.931 216.854 675.583 216.854C676.104 216.854 676.58 216.931 677.01 217.083C677.448 217.236 677.823 217.483 678.135 217.823C678.455 218.163 678.698 218.615 678.865 219.177C679.038 219.733 679.125 220.42 679.125 221.24V228.333H675.594V221.229C675.594 220.778 675.531 220.434 675.406 220.198C675.281 219.955 675.101 219.788 674.865 219.698C674.628 219.608 674.34 219.562 674 219.562C673.639 219.562 673.333 219.632 673.083 219.771C672.833 219.91 672.632 220.104 672.479 220.354C672.333 220.597 672.226 220.885 672.156 221.219C672.094 221.552 672.063 221.917 672.063 222.312ZM687.552 225.75V212.333H691.083V228.333H687.917L687.552 225.75ZM680.635 222.833V222.615C680.635 221.76 680.729 220.983 680.917 220.281C681.104 219.573 681.382 218.965 681.75 218.458C682.118 217.944 682.576 217.549 683.125 217.271C683.674 216.993 684.306 216.854 685.021 216.854C685.66 216.854 686.219 217.003 686.698 217.302C687.177 217.594 687.587 218.003 687.927 218.531C688.267 219.059 688.545 219.677 688.76 220.385C688.976 221.087 689.139 221.844 689.25 222.656V222.917C689.139 223.681 688.976 224.403 688.76 225.083C688.545 225.757 688.267 226.354 687.927 226.875C687.587 227.396 687.174 227.806 686.687 228.104C686.208 228.396 685.646 228.542 685 228.542C684.285 228.542 683.653 228.399 683.104 228.115C682.562 227.83 682.108 227.431 681.74 226.917C681.378 226.403 681.104 225.799 680.917 225.104C680.729 224.41 680.635 223.653 680.635 222.833ZM684.146 222.615V222.833C684.146 223.257 684.174 223.649 684.229 224.01C684.285 224.372 684.378 224.691 684.51 224.969C684.649 225.24 684.83 225.451 685.052 225.604C685.281 225.757 685.562 225.833 685.896 225.833C686.347 225.833 686.719 225.726 687.01 225.51C687.309 225.295 687.528 224.99 687.667 224.594C687.812 224.198 687.875 223.733 687.854 223.198V222.375C687.868 221.917 687.837 221.514 687.76 221.167C687.684 220.812 687.562 220.517 687.396 220.281C687.236 220.045 687.031 219.868 686.781 219.75C686.538 219.625 686.25 219.562 685.917 219.562C685.59 219.562 685.312 219.639 685.083 219.792C684.861 219.944 684.681 220.16 684.542 220.437C684.403 220.708 684.302 221.031 684.24 221.406C684.177 221.774 684.146 222.177 684.146 222.615ZM707.177 223.198H710.823C710.774 224.253 710.49 225.184 709.969 225.99C709.448 226.795 708.726 227.424 707.802 227.875C706.885 228.319 705.802 228.542 704.552 228.542C703.538 228.542 702.632 228.372 701.833 228.031C701.042 227.691 700.368 227.201 699.812 226.562C699.264 225.924 698.844 225.149 698.552 224.24C698.267 223.33 698.125 222.306 698.125 221.167V220.344C698.125 219.205 698.274 218.181 698.573 217.271C698.878 216.354 699.309 215.576 699.865 214.937C700.427 214.292 701.101 213.799 701.885 213.458C702.67 213.118 703.542 212.948 704.5 212.948C705.819 212.948 706.934 213.184 707.844 213.656C708.753 214.128 709.458 214.778 709.958 215.604C710.458 216.424 710.753 217.358 710.844 218.406H707.198C707.184 217.837 707.087 217.361 706.906 216.979C706.726 216.59 706.441 216.299 706.052 216.104C705.663 215.91 705.146 215.812 704.5 215.812C704.049 215.812 703.656 215.896 703.323 216.062C702.99 216.229 702.712 216.493 702.49 216.854C702.267 217.215 702.101 217.684 701.99 218.26C701.885 218.83 701.833 219.517 701.833 220.323V221.167C701.833 221.972 701.882 222.66 701.979 223.229C702.076 223.799 702.233 224.264 702.448 224.625C702.663 224.986 702.941 225.253 703.281 225.427C703.628 225.594 704.052 225.677 704.552 225.677C705.108 225.677 705.576 225.59 705.958 225.417C706.34 225.236 706.635 224.965 706.844 224.604C707.052 224.236 707.163 223.767 707.177 223.198ZM720.365 224.302C720.365 224.066 720.33 223.854 720.26 223.667C720.191 223.472 720.062 223.292 719.875 223.125C719.687 222.958 719.417 222.792 719.062 222.625C718.715 222.451 718.257 222.271 717.687 222.083C717.021 221.861 716.378 221.611 715.76 221.333C715.142 221.049 714.59 220.719 714.104 220.344C713.618 219.962 713.233 219.517 712.948 219.01C712.663 218.497 712.521 217.899 712.521 217.219C712.521 216.566 712.667 215.979 712.958 215.458C713.25 214.931 713.656 214.483 714.177 214.115C714.705 213.74 715.323 213.455 716.031 213.26C716.74 213.059 717.514 212.958 718.354 212.958C719.465 212.958 720.444 213.153 721.292 213.542C722.146 213.924 722.812 214.469 723.292 215.177C723.778 215.878 724.021 216.708 724.021 217.667H720.385C720.385 217.285 720.306 216.948 720.146 216.656C719.993 216.365 719.76 216.135 719.448 215.969C719.135 215.802 718.743 215.719 718.271 215.719C717.812 215.719 717.427 215.788 717.115 215.927C716.802 216.066 716.566 216.253 716.406 216.49C716.247 216.719 716.167 216.972 716.167 217.25C716.167 217.479 716.229 217.687 716.354 217.875C716.486 218.056 716.67 218.226 716.906 218.385C717.149 218.545 717.441 218.698 717.781 218.844C718.128 218.99 718.517 219.132 718.948 219.271C719.753 219.528 720.469 219.816 721.094 220.135C721.726 220.448 722.257 220.806 722.687 221.208C723.125 221.604 723.455 222.056 723.677 222.562C723.906 223.069 724.021 223.642 724.021 224.281C724.021 224.962 723.889 225.566 723.625 226.094C723.361 226.622 722.983 227.069 722.49 227.437C721.997 227.799 721.406 228.073 720.719 228.26C720.031 228.448 719.264 228.542 718.417 228.542C717.639 228.542 716.872 228.444 716.115 228.25C715.365 228.049 714.684 227.743 714.073 227.333C713.462 226.917 712.972 226.385 712.604 225.74C712.243 225.087 712.062 224.312 712.062 223.417H715.729C715.729 223.861 715.788 224.236 715.906 224.542C716.024 224.847 716.198 225.094 716.427 225.281C716.656 225.462 716.937 225.594 717.271 225.677C717.604 225.753 717.986 225.792 718.417 225.792C718.882 225.792 719.257 225.726 719.542 225.594C719.826 225.455 720.035 225.274 720.167 225.052C720.299 224.823 720.365 224.573 720.365 224.302ZM733.719 224.302C733.719 224.066 733.684 223.854 733.615 223.667C733.545 223.472 733.417 223.292 733.229 223.125C733.042 222.958 732.771 222.792 732.417 222.625C732.069 222.451 731.611 222.271 731.042 222.083C730.375 221.861 729.733 221.611 729.115 221.333C728.497 221.049 727.944 220.719 727.458 220.344C726.972 219.962 726.587 219.517 726.302 219.01C726.017 218.497 725.875 217.899 725.875 217.219C725.875 216.566 726.021 215.979 726.313 215.458C726.604 214.931 727.01 214.483 727.531 214.115C728.059 213.74 728.677 213.455 729.385 213.26C730.094 213.059 730.868 212.958 731.708 212.958C732.819 212.958 733.799 213.153 734.646 213.542C735.5 213.924 736.167 214.469 736.646 215.177C737.132 215.878 737.375 216.708 737.375 217.667H733.74C733.74 217.285 733.66 216.948 733.5 216.656C733.347 216.365 733.115 216.135 732.802 215.969C732.49 215.802 732.097 215.719 731.625 215.719C731.167 215.719 730.781 215.788 730.469 215.927C730.156 216.066 729.92 216.253 729.76 216.49C729.601 216.719 729.521 216.972 729.521 217.25C729.521 217.479 729.583 217.687 729.708 217.875C729.84 218.056 730.024 218.226 730.26 218.385C730.503 218.545 730.795 218.698 731.135 218.844C731.483 218.99 731.872 219.132 732.302 219.271C733.108 219.528 733.823 219.816 734.448 220.135C735.08 220.448 735.611 220.806 736.042 221.208C736.479 221.604 736.809 222.056 737.031 222.562C737.26 223.069 737.375 223.642 737.375 224.281C737.375 224.962 737.243 225.566 736.979 226.094C736.715 226.622 736.337 227.069 735.844 227.437C735.351 227.799 734.76 228.073 734.073 228.26C733.385 228.448 732.618 228.542 731.771 228.542C730.993 228.542 730.226 228.444 729.469 228.25C728.719 228.049 728.038 227.743 727.427 227.333C726.816 226.917 726.326 226.385 725.958 225.74C725.597 225.087 725.417 224.312 725.417 223.417H729.083C729.083 223.861 729.142 224.236 729.26 224.542C729.378 224.847 729.552 225.094 729.781 225.281C730.01 225.462 730.292 225.594 730.625 225.677C730.958 225.753 731.34 225.792 731.771 225.792C732.236 225.792 732.611 225.726 732.896 225.594C733.181 225.455 733.389 225.274 733.521 225.052C733.653 224.823 733.719 224.573 733.719 224.302Z" fill="white"/>
</svg>
