<svg width="1363" height="167" viewBox="0 0 1363 167" fill="none" xmlns="http://www.w3.org/2000/svg">
<rect width="1363" height="167" rx="15" fill="#F0F0F0"/>
<path d="M0 15C0 6.71573 6.71573 0 15 0H37V167H15C6.71573 167 0 160.284 0 152V15Z" fill="#424241"/>
<path d="M100.906 54.9219L93.3945 52.2383V49.0859L103.602 53.375V55.6367L100.906 54.9219ZM93.3945 57.1719L100.918 54.4297L103.602 53.7852V56.0352L93.3945 60.3242V57.1719ZM118.836 47.8555L114.195 62H110.457L116.797 44.9375H119.176L118.836 47.8555ZM122.691 62L118.039 47.8555L117.664 44.9375H120.066L126.441 62H122.691ZM122.48 55.6484V58.4023H113.469V55.6484H122.48ZM135.172 58.9648V49.3203H138.547V62H135.371L135.172 58.9648ZM135.547 56.3633L136.543 56.3398C136.543 57.1836 136.445 57.9688 136.25 58.6953C136.055 59.4141 135.762 60.0391 135.371 60.5703C134.98 61.0938 134.488 61.5039 133.895 61.8008C133.301 62.0898 132.602 62.2344 131.797 62.2344C131.18 62.2344 130.609 62.1484 130.086 61.9766C129.57 61.7969 129.125 61.5195 128.75 61.1445C128.383 60.7617 128.094 60.2734 127.883 59.6797C127.68 59.0781 127.578 58.3555 127.578 57.5117V49.3203H130.953V57.5352C130.953 57.9102 130.996 58.2266 131.082 58.4844C131.176 58.7422 131.305 58.9531 131.469 59.1172C131.633 59.2812 131.824 59.3984 132.043 59.4688C132.27 59.5391 132.52 59.5742 132.793 59.5742C133.488 59.5742 134.035 59.4336 134.434 59.1523C134.84 58.8711 135.125 58.4883 135.289 58.0039C135.461 57.5117 135.547 56.9648 135.547 56.3633ZM147.336 49.3203V51.7109H139.953V49.3203H147.336ZM141.781 46.1914H145.156V58.1797C145.156 58.5469 145.203 58.8281 145.297 59.0234C145.398 59.2188 145.547 59.3555 145.742 59.4336C145.938 59.5039 146.184 59.5391 146.48 59.5391C146.691 59.5391 146.879 59.5312 147.043 59.5156C147.215 59.4922 147.359 59.4688 147.477 59.4453L147.488 61.9297C147.199 62.0234 146.887 62.0977 146.551 62.1523C146.215 62.207 145.844 62.2344 145.438 62.2344C144.695 62.2344 144.047 62.1133 143.492 61.8711C142.945 61.6211 142.523 61.2227 142.227 60.6758C141.93 60.1289 141.781 59.4102 141.781 58.5195V46.1914ZM148.414 55.7891V55.543C148.414 54.6133 148.547 53.7578 148.812 52.9766C149.078 52.1875 149.465 51.5039 149.973 50.9258C150.48 50.3477 151.105 49.8984 151.848 49.5781C152.59 49.25 153.441 49.0859 154.402 49.0859C155.363 49.0859 156.219 49.25 156.969 49.5781C157.719 49.8984 158.348 50.3477 158.855 50.9258C159.371 51.5039 159.762 52.1875 160.027 52.9766C160.293 53.7578 160.426 54.6133 160.426 55.543V55.7891C160.426 56.7109 160.293 57.5664 160.027 58.3555C159.762 59.1367 159.371 59.8203 158.855 60.4062C158.348 60.9844 157.723 61.4336 156.98 61.7539C156.238 62.0742 155.387 62.2344 154.426 62.2344C153.465 62.2344 152.609 62.0742 151.859 61.7539C151.117 61.4336 150.488 60.9844 149.973 60.4062C149.465 59.8203 149.078 59.1367 148.812 58.3555C148.547 57.5664 148.414 56.7109 148.414 55.7891ZM151.789 55.543V55.7891C151.789 56.3203 151.836 56.8164 151.93 57.2773C152.023 57.7383 152.172 58.1445 152.375 58.4961C152.586 58.8398 152.859 59.1094 153.195 59.3047C153.531 59.5 153.941 59.5977 154.426 59.5977C154.895 59.5977 155.297 59.5 155.633 59.3047C155.969 59.1094 156.238 58.8398 156.441 58.4961C156.645 58.1445 156.793 57.7383 156.887 57.2773C156.988 56.8164 157.039 56.3203 157.039 55.7891V55.543C157.039 55.0273 156.988 54.543 156.887 54.0898C156.793 53.6289 156.641 53.2227 156.43 52.8711C156.227 52.5117 155.957 52.2305 155.621 52.0273C155.285 51.8242 154.879 51.7227 154.402 51.7227C153.926 51.7227 153.52 51.8242 153.184 52.0273C152.855 52.2305 152.586 52.5117 152.375 52.8711C152.172 53.2227 152.023 53.6289 151.93 54.0898C151.836 54.543 151.789 55.0273 151.789 55.543ZM167.949 62H164.234L164.258 59.2578H167.949C168.871 59.2578 169.648 59.0508 170.281 58.6367C170.914 58.2148 171.391 57.6016 171.711 56.7969C172.039 55.9922 172.203 55.0195 172.203 53.8789V53.0469C172.203 52.1719 172.109 51.4023 171.922 50.7383C171.742 50.0742 171.473 49.5156 171.113 49.0625C170.754 48.6094 170.312 48.2695 169.789 48.043C169.266 47.8086 168.664 47.6914 167.984 47.6914H164.164V44.9375H167.984C169.125 44.9375 170.168 45.1328 171.113 45.5234C172.066 45.9062 172.891 46.457 173.586 47.1758C174.281 47.8945 174.816 48.7539 175.191 49.7539C175.574 50.7461 175.766 51.8516 175.766 53.0703V53.8789C175.766 55.0898 175.574 56.1953 175.191 57.1953C174.816 58.1953 174.281 59.0547 173.586 59.7734C172.898 60.4844 172.074 61.0352 171.113 61.4258C170.16 61.8086 169.105 62 167.949 62ZM166.227 44.9375V62H162.711V44.9375H166.227ZM181.672 49.3203V62H178.285V49.3203H181.672ZM178.074 46.0156C178.074 45.5234 178.246 45.1172 178.59 44.7969C178.934 44.4766 179.395 44.3164 179.973 44.3164C180.543 44.3164 181 44.4766 181.344 44.7969C181.695 45.1172 181.871 45.5234 181.871 46.0156C181.871 46.5078 181.695 46.9141 181.344 47.2344C181 47.5547 180.543 47.7148 179.973 47.7148C179.395 47.7148 178.934 47.5547 178.59 47.2344C178.246 46.9141 178.074 46.5078 178.074 46.0156ZM190.297 62.2344C189.312 62.2344 188.43 62.0781 187.648 61.7656C186.867 61.4453 186.203 61.0039 185.656 60.4414C185.117 59.8789 184.703 59.2266 184.414 58.4844C184.125 57.7344 183.98 56.9375 183.98 56.0938V55.625C183.98 54.6641 184.117 53.7852 184.391 52.9883C184.664 52.1914 185.055 51.5 185.562 50.9141C186.078 50.3281 186.703 49.8789 187.438 49.5664C188.172 49.2461 189 49.0859 189.922 49.0859C190.82 49.0859 191.617 49.2344 192.312 49.5312C193.008 49.8281 193.59 50.25 194.059 50.7969C194.535 51.3438 194.895 52 195.137 52.7656C195.379 53.5234 195.5 54.3672 195.5 55.2969V56.7031H185.422V54.4531H192.184V54.1953C192.184 53.7266 192.098 53.3086 191.926 52.9414C191.762 52.5664 191.512 52.2695 191.176 52.0508C190.84 51.832 190.41 51.7227 189.887 51.7227C189.441 51.7227 189.059 51.8203 188.738 52.0156C188.418 52.2109 188.156 52.4844 187.953 52.8359C187.758 53.1875 187.609 53.6016 187.508 54.0781C187.414 54.5469 187.367 55.0625 187.367 55.625V56.0938C187.367 56.6016 187.438 57.0703 187.578 57.5C187.727 57.9297 187.934 58.3008 188.199 58.6133C188.473 58.9258 188.801 59.168 189.184 59.3398C189.574 59.5117 190.016 59.5977 190.508 59.5977C191.117 59.5977 191.684 59.4805 192.207 59.2461C192.738 59.0039 193.195 58.6406 193.578 58.1562L195.219 59.9375C194.953 60.3203 194.59 60.6875 194.129 61.0391C193.676 61.3906 193.129 61.6797 192.488 61.9062C191.848 62.125 191.117 62.2344 190.297 62.2344ZM203.633 49.3203V51.7109H196.25V49.3203H203.633ZM198.078 46.1914H201.453V58.1797C201.453 58.5469 201.5 58.8281 201.594 59.0234C201.695 59.2188 201.844 59.3555 202.039 59.4336C202.234 59.5039 202.48 59.5391 202.777 59.5391C202.988 59.5391 203.176 59.5312 203.34 59.5156C203.512 59.4922 203.656 59.4688 203.773 59.4453L203.785 61.9297C203.496 62.0234 203.184 62.0977 202.848 62.1523C202.512 62.207 202.141 62.2344 201.734 62.2344C200.992 62.2344 200.344 62.1133 199.789 61.8711C199.242 61.6211 198.82 61.2227 198.523 60.6758C198.227 60.1289 198.078 59.4102 198.078 58.5195V46.1914Z" fill="#888888"/>
<path d="M107.205 107.146H99.251V101.191H107.205C108.289 101.191 109.168 101.008 109.842 100.642C110.516 100.275 111.006 99.77 111.314 99.1255C111.636 98.4663 111.797 97.7266 111.797 96.9062C111.797 96.0273 111.636 95.2144 111.314 94.4673C111.006 93.7202 110.516 93.1196 109.842 92.6655C109.168 92.1968 108.289 91.9624 107.205 91.9624H102.151V118H94.439V86.0078H107.205C109.769 86.0078 111.973 86.4766 113.819 87.4141C115.679 88.3516 117.107 89.6406 118.104 91.2812C119.1 92.9072 119.598 94.7676 119.598 96.8623C119.598 98.9277 119.1 100.729 118.104 102.268C117.107 103.806 115.679 105.007 113.819 105.871C111.973 106.721 109.769 107.146 107.205 107.146ZM130.87 100.114V118H123.465V94.2256H130.386L130.87 100.114ZM137.901 94.0498L137.769 100.927C137.476 100.898 137.081 100.861 136.583 100.817C136.084 100.773 135.667 100.751 135.33 100.751C134.466 100.751 133.719 100.854 133.089 101.059C132.474 101.25 131.961 101.542 131.551 101.938C131.155 102.319 130.862 102.802 130.672 103.388C130.496 103.974 130.416 104.655 130.43 105.432L129.09 104.553C129.09 102.956 129.244 101.506 129.551 100.202C129.874 98.8838 130.328 97.7485 130.914 96.7964C131.5 95.8296 132.21 95.0898 133.045 94.5771C133.88 94.0498 134.817 93.7861 135.857 93.7861C136.224 93.7861 136.583 93.8081 136.934 93.8521C137.3 93.896 137.623 93.9619 137.901 94.0498ZM138.736 106.354V105.893C138.736 104.15 138.985 102.546 139.483 101.081C139.981 99.6016 140.713 98.3198 141.68 97.2358C142.647 96.1519 143.841 95.3096 145.262 94.709C146.683 94.0938 148.323 93.7861 150.184 93.7861C152.059 93.7861 153.707 94.0938 155.127 94.709C156.563 95.3096 157.764 96.1519 158.731 97.2358C159.698 98.3198 160.43 99.6016 160.928 101.081C161.426 102.546 161.675 104.15 161.675 105.893V106.354C161.675 108.083 161.426 109.687 160.928 111.167C160.43 112.631 159.698 113.913 158.731 115.012C157.764 116.096 156.57 116.938 155.149 117.539C153.729 118.139 152.088 118.439 150.228 118.439C148.367 118.439 146.719 118.139 145.284 117.539C143.848 116.938 142.647 116.096 141.68 115.012C140.713 113.913 139.981 112.631 139.483 111.167C138.985 109.687 138.736 108.083 138.736 106.354ZM146.141 105.893V106.354C146.141 107.248 146.207 108.083 146.338 108.859C146.47 109.636 146.69 110.317 146.998 110.903C147.305 111.474 147.723 111.921 148.25 112.243C148.777 112.565 149.437 112.727 150.228 112.727C151.004 112.727 151.648 112.565 152.161 112.243C152.688 111.921 153.106 111.474 153.414 110.903C153.721 110.317 153.941 109.636 154.073 108.859C154.205 108.083 154.271 107.248 154.271 106.354V105.893C154.271 105.029 154.205 104.216 154.073 103.454C153.941 102.678 153.721 101.997 153.414 101.411C153.106 100.81 152.688 100.341 152.161 100.004C151.634 99.6675 150.975 99.499 150.184 99.499C149.407 99.499 148.755 99.6675 148.228 100.004C147.715 100.341 147.305 100.81 146.998 101.411C146.69 101.997 146.47 102.678 146.338 103.454C146.207 104.216 146.141 105.029 146.141 105.893ZM177.496 94.2256V99.3672H163.169V94.2256H177.496ZM166.18 88.3149H173.584V110.244C173.584 110.874 173.658 111.364 173.804 111.716C173.951 112.053 174.2 112.294 174.551 112.441C174.917 112.573 175.401 112.639 176.001 112.639C176.426 112.639 176.778 112.631 177.056 112.617C177.334 112.587 177.598 112.551 177.847 112.507V117.802C177.217 118.007 176.558 118.161 175.87 118.264C175.181 118.381 174.449 118.439 173.672 118.439C172.09 118.439 170.735 118.19 169.607 117.692C168.494 117.194 167.645 116.411 167.059 115.341C166.473 114.272 166.18 112.88 166.18 111.167V88.3149ZM178.858 106.354V105.893C178.858 104.15 179.107 102.546 179.605 101.081C180.103 99.6016 180.835 98.3198 181.802 97.2358C182.769 96.1519 183.963 95.3096 185.384 94.709C186.805 94.0938 188.445 93.7861 190.306 93.7861C192.181 93.7861 193.829 94.0938 195.25 94.709C196.685 95.3096 197.886 96.1519 198.853 97.2358C199.82 98.3198 200.552 99.6016 201.05 101.081C201.548 102.546 201.797 104.15 201.797 105.893V106.354C201.797 108.083 201.548 109.687 201.05 111.167C200.552 112.631 199.82 113.913 198.853 115.012C197.886 116.096 196.692 116.938 195.271 117.539C193.851 118.139 192.21 118.439 190.35 118.439C188.489 118.439 186.841 118.139 185.406 117.539C183.97 116.938 182.769 116.096 181.802 115.012C180.835 113.913 180.103 112.631 179.605 111.167C179.107 109.687 178.858 108.083 178.858 106.354ZM186.263 105.893V106.354C186.263 107.248 186.329 108.083 186.46 108.859C186.592 109.636 186.812 110.317 187.12 110.903C187.427 111.474 187.845 111.921 188.372 112.243C188.899 112.565 189.559 112.727 190.35 112.727C191.126 112.727 191.771 112.565 192.283 112.243C192.811 111.921 193.228 111.474 193.536 110.903C193.843 110.317 194.063 109.636 194.195 108.859C194.327 108.083 194.393 107.248 194.393 106.354V105.893C194.393 105.029 194.327 104.216 194.195 103.454C194.063 102.678 193.843 101.997 193.536 101.411C193.228 100.81 192.811 100.341 192.283 100.004C191.756 99.6675 191.097 99.499 190.306 99.499C189.529 99.499 188.877 99.6675 188.35 100.004C187.837 100.341 187.427 100.81 187.12 101.411C186.812 101.997 186.592 102.678 186.46 103.454C186.329 104.216 186.263 105.029 186.263 105.893ZM217.618 94.2256V99.3672H203.292V94.2256H217.618ZM206.302 88.3149H213.707V110.244C213.707 110.874 213.78 111.364 213.926 111.716C214.073 112.053 214.322 112.294 214.673 112.441C215.04 112.573 215.523 112.639 216.124 112.639C216.548 112.639 216.9 112.631 217.178 112.617C217.457 112.587 217.72 112.551 217.969 112.507V117.802C217.339 118.007 216.68 118.161 215.992 118.264C215.303 118.381 214.571 118.439 213.794 118.439C212.212 118.439 210.857 118.19 209.729 117.692C208.616 117.194 207.767 116.411 207.181 115.341C206.595 114.272 206.302 112.88 206.302 111.167V88.3149ZM227.857 115.209L234.009 94.2256H241.963L232.405 121.538C232.2 122.138 231.929 122.783 231.592 123.471C231.255 124.174 230.794 124.841 230.208 125.471C229.622 126.101 228.868 126.613 227.945 127.009C227.037 127.404 225.909 127.602 224.561 127.602C223.843 127.602 223.316 127.565 222.979 127.492C222.657 127.434 222.159 127.324 221.485 127.163V121.867C221.675 121.867 221.836 121.867 221.968 121.867C222.115 121.867 222.276 121.867 222.452 121.867C223.243 121.867 223.873 121.787 224.341 121.625C224.825 121.464 225.191 121.23 225.44 120.922C225.704 120.615 225.909 120.241 226.055 119.802L227.857 115.209ZM226.297 94.2256L230.977 110.859L231.79 118.703H226.824L218.365 94.2256H226.297ZM251.368 98.7959V127.141H243.963V94.2256H250.862L251.368 98.7959ZM265.958 105.827V106.289C265.958 108.017 265.76 109.621 265.364 111.101C264.969 112.58 264.383 113.869 263.606 114.968C262.83 116.066 261.863 116.923 260.706 117.539C259.563 118.139 258.238 118.439 256.729 118.439C255.308 118.439 254.085 118.125 253.06 117.495C252.034 116.865 251.177 115.993 250.489 114.88C249.8 113.767 249.244 112.492 248.819 111.057C248.394 109.621 248.057 108.105 247.808 106.508V105.915C248.057 104.201 248.394 102.612 248.819 101.147C249.244 99.6675 249.8 98.3784 250.489 97.2798C251.177 96.1812 252.027 95.3242 253.038 94.709C254.063 94.0938 255.286 93.7861 256.707 93.7861C258.216 93.7861 259.542 94.0718 260.684 94.6431C261.841 95.2144 262.808 96.0347 263.584 97.104C264.375 98.1587 264.969 99.4258 265.364 100.905C265.76 102.385 265.958 104.025 265.958 105.827ZM258.553 106.289V105.827C258.553 104.904 258.487 104.062 258.355 103.3C258.223 102.524 258.011 101.85 257.718 101.279C257.439 100.708 257.066 100.268 256.597 99.9604C256.128 99.6528 255.55 99.499 254.861 99.499C254.07 99.499 253.404 99.6235 252.862 99.8726C252.334 100.107 251.91 100.473 251.587 100.971C251.28 101.455 251.06 102.062 250.928 102.795C250.811 103.513 250.76 104.355 250.774 105.322V107.124C250.745 108.237 250.855 109.218 251.104 110.068C251.353 110.903 251.785 111.555 252.4 112.023C253.016 112.492 253.851 112.727 254.905 112.727C255.608 112.727 256.194 112.565 256.663 112.243C257.132 111.906 257.505 111.445 257.784 110.859C258.062 110.258 258.26 109.57 258.377 108.793C258.494 108.017 258.553 107.182 258.553 106.289ZM277.076 94.2256V118H269.649V94.2256H277.076ZM269.209 88.0952C269.209 87.0405 269.59 86.1763 270.352 85.5024C271.114 84.8286 272.103 84.4917 273.318 84.4917C274.534 84.4917 275.523 84.8286 276.285 85.5024C277.046 86.1763 277.427 87.0405 277.427 88.0952C277.427 89.1499 277.046 90.0142 276.285 90.688C275.523 91.3618 274.534 91.6987 273.318 91.6987C272.103 91.6987 271.114 91.3618 270.352 90.688C269.59 90.0142 269.209 89.1499 269.209 88.0952ZM288.919 99.3013V118H281.514V94.2256H288.458L288.919 99.3013ZM288.04 105.3L286.304 105.344C286.304 103.527 286.524 101.909 286.963 100.488C287.403 99.0522 288.025 97.8364 288.831 96.8403C289.637 95.8442 290.596 95.0898 291.709 94.5771C292.837 94.0498 294.09 93.7861 295.467 93.7861C296.565 93.7861 297.569 93.9473 298.477 94.2695C299.4 94.5918 300.191 95.1118 300.85 95.8296C301.524 96.5474 302.037 97.4995 302.388 98.686C302.754 99.8579 302.938 101.308 302.938 103.037V118H295.489V103.015C295.489 102.062 295.357 101.337 295.093 100.839C294.83 100.327 294.449 99.9751 293.951 99.7847C293.453 99.5942 292.845 99.499 292.127 99.499C291.365 99.499 290.721 99.6455 290.193 99.9385C289.666 100.231 289.241 100.642 288.919 101.169C288.611 101.682 288.384 102.29 288.238 102.993C288.106 103.696 288.04 104.465 288.04 105.3ZM321.988 94.2256H328.711V117.077C328.711 119.274 328.206 121.135 327.195 122.658C326.185 124.196 324.771 125.361 322.955 126.152C321.153 126.958 319.043 127.36 316.626 127.36C315.557 127.36 314.466 127.221 313.353 126.943C312.239 126.679 311.199 126.284 310.232 125.756C309.266 125.229 308.453 124.577 307.793 123.801L310.892 119.45C311.492 120.124 312.247 120.695 313.155 121.164C314.063 121.647 315.132 121.889 316.363 121.889C317.432 121.889 318.326 121.699 319.043 121.318C319.776 120.937 320.333 120.38 320.713 119.648C321.094 118.93 321.285 118.059 321.285 117.033V99.8506L321.988 94.2256ZM306.189 106.398V105.937C306.189 104.135 306.409 102.495 306.849 101.015C307.303 99.521 307.947 98.2393 308.782 97.1699C309.632 96.0859 310.657 95.251 311.858 94.665C313.06 94.0791 314.415 93.7861 315.923 93.7861C317.549 93.7861 318.882 94.1011 319.922 94.731C320.977 95.3462 321.819 96.2104 322.449 97.3237C323.094 98.437 323.592 99.7407 323.943 101.235C324.31 102.714 324.617 104.311 324.866 106.025V106.574C324.617 108.186 324.273 109.709 323.833 111.145C323.409 112.565 322.852 113.825 322.164 114.924C321.475 116.022 320.611 116.887 319.571 117.517C318.545 118.132 317.315 118.439 315.879 118.439C314.385 118.439 313.038 118.139 311.836 117.539C310.65 116.938 309.632 116.096 308.782 115.012C307.947 113.928 307.303 112.653 306.849 111.188C306.409 109.724 306.189 108.127 306.189 106.398ZM313.594 105.937V106.398C313.594 107.292 313.675 108.12 313.836 108.881C314.012 109.643 314.275 110.317 314.627 110.903C314.979 111.474 315.411 111.921 315.923 112.243C316.451 112.565 317.066 112.727 317.769 112.727C318.838 112.727 319.703 112.5 320.362 112.045C321.021 111.591 321.497 110.947 321.79 110.112C322.083 109.277 322.208 108.295 322.164 107.167V105.432C322.193 104.465 322.127 103.615 321.966 102.883C321.805 102.136 321.548 101.513 321.197 101.015C320.86 100.517 320.406 100.144 319.834 99.8945C319.278 99.6309 318.604 99.499 317.813 99.499C317.125 99.499 316.517 99.6602 315.989 99.9824C315.462 100.305 315.022 100.759 314.671 101.345C314.319 101.916 314.048 102.597 313.858 103.388C313.682 104.165 313.594 105.014 313.594 105.937Z" fill="#424241"/>
<path d="M1363 15C1363 6.71573 1356.28 0 1348 0H1134V167H1348C1356.28 167 1363 160.284 1363 152V15Z" fill="#FDAD00"/>
<path fill-rule="evenodd" clip-rule="evenodd" d="M1203 49C1203 47.8954 1203.9 47 1205 47H1292.5C1293.6 47 1294.5 47.8954 1294.5 49V118.996C1294.5 120.101 1293.6 120.996 1292.5 120.996H1205C1203.9 120.996 1203 120.101 1203 118.996V49ZM1207 51V55.4945H1290.5V51H1207ZM1290.5 59.4945H1235.44V116.996H1290.5V59.4945ZM1231.44 116.996V59.4945H1207V116.996H1231.44Z" fill="white"/>
<path fill-rule="evenodd" clip-rule="evenodd" d="M1209.97 64.8004C1209.97 63.6958 1210.87 62.8004 1211.97 62.8004H1225.97C1227.08 62.8004 1227.97 63.6958 1227.97 64.8004V84.1956C1227.97 85.3001 1227.08 86.1956 1225.97 86.1956H1211.97C1210.87 86.1956 1209.97 85.3001 1209.97 84.1956V64.8004ZM1213.97 66.8004V82.1956H1223.97V66.8004H1213.97ZM1239.58 65.6964C1239.58 64.5918 1240.47 63.6964 1241.58 63.6964H1284.5C1285.61 63.6964 1286.5 64.5918 1286.5 65.6964V111.905C1286.5 113.01 1285.61 113.905 1284.5 113.905H1241.58C1240.47 113.905 1239.58 113.01 1239.58 111.905V65.6964ZM1243.58 67.6964V109.905H1282.5V67.6964H1243.58ZM1209.81 95.9363C1209.81 94.8317 1210.71 93.9363 1211.81 93.9363H1220.73C1221.84 93.9363 1222.73 94.8317 1222.73 95.9363C1222.73 97.0409 1221.84 97.9363 1220.73 97.9363H1211.81C1210.71 97.9363 1209.81 97.0409 1209.81 95.9363ZM1209.81 102.936C1209.81 101.832 1210.71 100.936 1211.81 100.936H1226.35C1227.46 100.936 1228.35 101.832 1228.35 102.936C1228.35 104.041 1227.46 104.936 1226.35 104.936H1211.81C1210.71 104.936 1209.81 104.041 1209.81 102.936ZM1209.81 109.936C1209.81 108.832 1210.71 107.936 1211.81 107.936H1220.73C1221.84 107.936 1222.73 108.832 1222.73 109.936C1222.73 111.041 1221.84 111.936 1220.73 111.936H1211.81C1210.71 111.936 1209.81 111.041 1209.81 109.936Z" fill="white"/>
</svg>
